<svg xmlns="http://www.w3.org/2000/svg" width="513" height="57" viewBox="0 0 513 57">
  <defs>
    <style>
      .cls-1 {
        fill: #fff;
        fill-rule: evenodd;
      }
    </style>
  </defs>
  <path id="No_FEES_" data-name="No FEES!" class="cls-1" d="M178.974,24.947h4a0.821,0.821,0,0,0,.583-0.22,0.741,0.741,0,0,0,.236-0.567V13.076l7.4,11.273a1.153,1.153,0,0,0,1.071.6h3.558a0.741,0.741,0,0,0,.567-0.236,0.825,0.825,0,0,0,.22-0.582V3.723a0.826,0.826,0,0,0-.22-0.583,0.741,0.741,0,0,0-.567-0.236h-4a0.741,0.741,0,0,0-.567.236,0.821,0.821,0,0,0-.22.583V15.248L183.6,3.5a1.153,1.153,0,0,0-1.07-.6h-3.559a0.737,0.737,0,0,0-.566.236,0.818,0.818,0,0,0-.221.583V24.16a0.807,0.807,0,0,0,.787.787h0Zm31.048,0.315a10.551,10.551,0,0,0,7.038-2.173,8.341,8.341,0,0,0,2.724-6.392q0.063-1.763.063-2.708,0-.913-0.063-2.74a8.333,8.333,0,0,0-2.755-6.408,12.076,12.076,0,0,0-14.044,0,8.327,8.327,0,0,0-2.756,6.408q-0.032.914-.031,2.74t0.031,2.708a8.314,8.314,0,0,0,2.74,6.392,10.612,10.612,0,0,0,7.053,2.173h0Zm0-4.723a3.542,3.542,0,0,1-2.645-.992,4.379,4.379,0,0,1-1.039-3.039q-0.031-.913-0.031-2.614,0-1.669.031-2.551a4.38,4.38,0,0,1,1.039-3.039,3.542,3.542,0,0,1,2.645-.992,3.5,3.5,0,0,1,2.614.992,4.385,4.385,0,0,1,1.039,3.039q0.063,1.764.063,2.551t-0.063,2.614a4.384,4.384,0,0,1-1.039,3.039,3.5,3.5,0,0,1-2.614.992h0Zm20.783,4.409h4.219a0.741,0.741,0,0,0,.567-0.236,0.782,0.782,0,0,0,.221-0.551V17.169h9a0.822,0.822,0,0,0,.583-0.221,0.741,0.741,0,0,0,.236-0.567V13.044a0.806,0.806,0,0,0-.819-0.819h-9V7.848h9.635a0.823,0.823,0,0,0,.583-0.22,0.741,0.741,0,0,0,.236-0.567V3.723a0.806,0.806,0,0,0-.819-0.819H230.805a0.741,0.741,0,0,0-.567.236,0.821,0.821,0,0,0-.22.583V24.16a0.807,0.807,0,0,0,.787.787h0Zm19.554,0h15.115a0.819,0.819,0,0,0,.582-0.22,0.739,0.739,0,0,0,.237-0.567V21.042a0.808,0.808,0,0,0-.819-0.819h-10.2V16.13h9.258a0.806,0.806,0,0,0,.819-0.819V12.446a0.806,0.806,0,0,0-.819-0.819h-9.258v-4h9.951a0.819,0.819,0,0,0,.582-0.22,0.738,0.738,0,0,0,.237-0.567V3.723a0.808,0.808,0,0,0-.819-0.819H250.359a0.741,0.741,0,0,0-.567.236,0.821,0.821,0,0,0-.22.583V24.16a0.807,0.807,0,0,0,.787.787h0Zm20.216,0H285.69a0.819,0.819,0,0,0,.582-0.22,0.738,0.738,0,0,0,.236-0.567V21.042a0.806,0.806,0,0,0-.818-0.819h-10.2V16.13h9.258a0.806,0.806,0,0,0,.819-0.819V12.446a0.806,0.806,0,0,0-.819-0.819h-9.258v-4h9.951a0.819,0.819,0,0,0,.582-0.22,0.738,0.738,0,0,0,.237-0.567V3.723a0.808,0.808,0,0,0-.819-0.819H270.575a0.741,0.741,0,0,0-.567.236,0.821,0.821,0,0,0-.22.583V24.16a0.807,0.807,0,0,0,.787.787h0Zm27.773,0.315a13.824,13.824,0,0,0,4.976-.835,7.674,7.674,0,0,0,3.4-2.409,5.861,5.861,0,0,0,1.228-3.716,5.786,5.786,0,0,0-.834-3.228A5.934,5.934,0,0,0,304.536,13a20.18,20.18,0,0,0-4.708-1.338A14.277,14.277,0,0,1,296.3,10.6a1.586,1.586,0,0,1-.945-1.433,1.549,1.549,0,0,1,.724-1.386,3.738,3.738,0,0,1,2.047-.472,3.843,3.843,0,0,1,1.952.457,1.943,1.943,0,0,1,.976,1.118,1.213,1.213,0,0,0,1.071.567h4.408a0.616,0.616,0,0,0,.473-0.2,0.7,0.7,0,0,0,.189-0.488,5.079,5.079,0,0,0-1.15-2.818A8.223,8.223,0,0,0,302.93,3.55a11.139,11.139,0,0,0-4.8-.96,11.792,11.792,0,0,0-4.645.85A7.07,7.07,0,0,0,290.4,5.817a5.856,5.856,0,0,0-1.086,3.48,5.367,5.367,0,0,0,1.889,4.408,13.035,13.035,0,0,0,5.7,2.3q1.952,0.41,2.991.74a4.19,4.19,0,0,1,1.512.756,1.4,1.4,0,0,1,.472,1.086,1.589,1.589,0,0,1-.913,1.433,5.356,5.356,0,0,1-2.614.52,4.7,4.7,0,0,1-2.314-.488,3.156,3.156,0,0,1-1.275-1.244,2.051,2.051,0,0,0-.52-0.441,1.3,1.3,0,0,0-.614-0.126h-4.188a0.694,0.694,0,0,0-.488.189,0.615,0.615,0,0,0-.2.472,5.436,5.436,0,0,0,1.165,3.149,7.577,7.577,0,0,0,3.244,2.33,13.65,13.65,0,0,0,5.195.882h0Zm13.225-7.431h3.81a0.806,0.806,0,0,0,.819-0.819V3.692a0.743,0.743,0,0,0-.236-0.567,0.823,0.823,0,0,0-.583-0.22h-3.81a0.821,0.821,0,0,0-.582.22,0.739,0.739,0,0,0-.236.567v13.32a0.806,0.806,0,0,0,.818.819h0Zm-0.126,7.117h4.062a0.741,0.741,0,0,0,.567-0.236,0.782,0.782,0,0,0,.221-0.551V20.1a0.791,0.791,0,0,0-.237-0.583,0.754,0.754,0,0,0-.551-0.236h-4.062a0.756,0.756,0,0,0-.551.236,0.794,0.794,0,0,0-.236.583V24.16a0.807,0.807,0,0,0,.787.787h0Z"/>
  <path id="deposits_and_wihdrawal" data-name="deposits and wihdrawal" class="cls-1" d="M205.2,42.117h2.871a4.734,4.734,0,0,0,2.013-.36,2.279,2.279,0,0,0,1.112-1.1,4.707,4.707,0,0,0,.379-1.92q0.012-.373.012-0.982t-0.012-.969a3.533,3.533,0,0,0-.857-2.529,3.707,3.707,0,0,0-2.71-.839H205.2a0.259,0.259,0,0,0-.2.081,0.307,0.307,0,0,0-.075.217v8.115a0.289,0.289,0,0,0,.075.2,0.258,0.258,0,0,0,.2.081h0Zm0.895-1.032V34.437h1.851a2.52,2.52,0,0,1,1.858.578,2.6,2.6,0,0,1,.59,1.821q0.025,0.721.025,0.92t-0.025.932a3.755,3.755,0,0,1-.254,1.4,1.482,1.482,0,0,1-.746.758,3.3,3.3,0,0,1-1.386.242h-1.913Zm7.655,1.032h5.207a0.3,0.3,0,0,0,.211-0.081,0.267,0.267,0,0,0,.087-0.2V41.384a0.279,0.279,0,0,0-.3-0.3h-4.337V38.215h3.964a0.291,0.291,0,0,0,.217-0.081,0.277,0.277,0,0,0,.081-0.205V37.507a0.279,0.279,0,0,0-.3-0.3h-3.964V34.437h4.237a0.31,0.31,0,0,0,.218-0.075,0.257,0.257,0,0,0,.081-0.2V33.716a0.279,0.279,0,0,0-.3-0.3h-5.107a0.259,0.259,0,0,0-.2.081,0.307,0.307,0,0,0-.075.217v8.115a0.289,0.289,0,0,0,.075.2,0.258,0.258,0,0,0,.2.081h0Zm7.518,0h0.622a0.275,0.275,0,0,0,.285-0.286V38.7h2.237a3.332,3.332,0,0,0,2.206-.671,2.812,2.812,0,0,0,0-3.933,3.311,3.311,0,0,0-2.206-.677h-3.144a0.259,0.259,0,0,0-.2.081,0.312,0.312,0,0,0-.074.217v8.115a0.293,0.293,0,0,0,.074.2,0.258,0.258,0,0,0,.2.081h0Zm0.907-4.424V34.425h2.175a2.045,2.045,0,0,1,1.411.422,1.563,1.563,0,0,1,.466,1.218q0,1.628-1.877,1.628h-2.175Zm9.893,4.548a3.427,3.427,0,0,0,2.491-.851,3.579,3.579,0,0,0,.926-2.566q0.025-.746.025-1.056t-0.025-1.044a3.537,3.537,0,0,0-.957-2.56,3.923,3.923,0,0,0-4.927,0,3.523,3.523,0,0,0-.963,2.56q-0.013.361-.013,1.044t0.013,1.056a3.56,3.56,0,0,0,.932,2.566,3.451,3.451,0,0,0,2.5.851h0Zm0-1.032a2.156,2.156,0,0,1-1.6-.6,2.651,2.651,0,0,1-.633-1.846q-0.014-.373-0.013-0.994t0.013-.994a2.654,2.654,0,0,1,.64-1.852,2.389,2.389,0,0,1,3.187,0,2.718,2.718,0,0,1,.647,1.852q0.024,0.721.024,0.994,0,0.249-.024.994a2.692,2.692,0,0,1-.647,1.846,2.136,2.136,0,0,1-1.59.6h0Zm8.052,1.032a3.98,3.98,0,0,0,2.405-.652,2.131,2.131,0,0,0,.889-1.821,1.99,1.99,0,0,0-.3-1.137,2.264,2.264,0,0,0-.9-0.739,9.992,9.992,0,0,0-1.66-.6,12.455,12.455,0,0,1-1.4-.485,1.923,1.923,0,0,1-.708-0.485,1.064,1.064,0,0,1-.23-0.708,1.1,1.1,0,0,1,.5-0.975,2.4,2.4,0,0,1,1.342-.329,2.3,2.3,0,0,1,1.3.348,1.253,1.253,0,0,1,.6.882,0.34,0.34,0,0,0,.124.186,0.314,0.314,0,0,0,.186.062h0.622a0.256,0.256,0,0,0,.261-0.261,1.975,1.975,0,0,0-.385-1.038,2.724,2.724,0,0,0-1.051-.858,3.7,3.7,0,0,0-1.659-.342,3.941,3.941,0,0,0-1.615.3,2.41,2.41,0,0,0-1.044.833,2.073,2.073,0,0,0-.361,1.2,2.125,2.125,0,0,0,.286,1.149,2.26,2.26,0,0,0,.852.764,7.492,7.492,0,0,0,1.522.584q1.006,0.3,1.51.5a2.122,2.122,0,0,1,.758.478,0.981,0.981,0,0,1,.255.7,1.2,1.2,0,0,1-.522,1.032,2.723,2.723,0,0,1-1.579.373,2.56,2.56,0,0,1-1.509-.379,1.489,1.489,0,0,1-.64-0.9,0.319,0.319,0,0,0-.311-0.249h-0.609a0.254,0.254,0,0,0-.187.075,0.241,0.241,0,0,0-.074.174,2.012,2.012,0,0,0,.416,1.137,2.71,2.71,0,0,0,1.144.851,4.457,4.457,0,0,0,1.77.323h0Zm5.208-.124h0.621a0.277,0.277,0,0,0,.286-0.286V33.7a0.26,0.26,0,0,0-.286-0.286h-0.621a0.257,0.257,0,0,0-.2.081,0.29,0.29,0,0,0-.075.205v8.128a0.289,0.289,0,0,0,.075.2,0.256,0.256,0,0,0,.2.081h0Zm5.281,0h0.6a0.3,0.3,0,0,0,.211-0.081,0.267,0.267,0,0,0,.087-0.2V34.487h2.386a0.277,0.277,0,0,0,.286-0.286V33.716A0.307,0.307,0,0,0,254.1,33.5a0.272,0.272,0,0,0-.211-0.081h-5.965a0.278,0.278,0,0,0-.205.081,0.294,0.294,0,0,0-.081.217V34.2a0.277,0.277,0,0,0,.286.286h2.4v7.345a0.277,0.277,0,0,0,.286.286h0Zm7.705,0.124a3.982,3.982,0,0,0,2.4-.652,2.13,2.13,0,0,0,.888-1.821,1.99,1.99,0,0,0-.3-1.137,2.267,2.267,0,0,0-.9-0.739,10.01,10.01,0,0,0-1.659-.6,12.455,12.455,0,0,1-1.4-.485,1.923,1.923,0,0,1-.708-0.485,1.059,1.059,0,0,1-.23-0.708,1.093,1.093,0,0,1,.5-0.975,2.4,2.4,0,0,1,1.342-.329,2.3,2.3,0,0,1,1.305.348,1.249,1.249,0,0,1,.6.882,0.341,0.341,0,0,0,.125.186,0.314,0.314,0,0,0,.186.062h0.621a0.254,0.254,0,0,0,.261-0.261,1.967,1.967,0,0,0-.385-1.038,2.713,2.713,0,0,0-1.05-.858,3.706,3.706,0,0,0-1.659-.342,3.949,3.949,0,0,0-1.616.3,2.413,2.413,0,0,0-1.043.833,2.073,2.073,0,0,0-.361,1.2,2.117,2.117,0,0,0,.286,1.149,2.257,2.257,0,0,0,.851.764,7.527,7.527,0,0,0,1.523.584q1.006,0.3,1.51.5a2.122,2.122,0,0,1,.758.478,0.984,0.984,0,0,1,.254.7,1.2,1.2,0,0,1-.522,1.032,2.722,2.722,0,0,1-1.578.373,2.564,2.564,0,0,1-1.51-.379,1.5,1.5,0,0,1-.64-0.9,0.317,0.317,0,0,0-.31-0.249h-0.609a0.254,0.254,0,0,0-.187.075,0.237,0.237,0,0,0-.074.174,2.012,2.012,0,0,0,.416,1.137,2.713,2.713,0,0,0,1.143.851,4.462,4.462,0,0,0,1.771.323h0Zm7.059-.124h0.6a0.326,0.326,0,0,0,.311-0.211l0.684-1.789h4.113l0.7,1.789a0.323,0.323,0,0,0,.106.143,0.3,0.3,0,0,0,.2.068h0.584a0.26,0.26,0,0,0,.18-0.075,0.23,0.23,0,0,0,.081-0.174l-0.025-.137-3.082-8.041a0.388,0.388,0,0,0-.4-0.273h-0.8a0.387,0.387,0,0,0-.4.273l-3.082,8.041-0.025.137a0.256,0.256,0,0,0,.249.249h0Zm3.653-7.494,1.7,4.462h-3.4Zm5.518,7.494h0.572a0.277,0.277,0,0,0,.286-0.286V35.593l4.163,6.35a0.306,0.306,0,0,0,.3.174h0.559a0.269,0.269,0,0,0,.206-0.087,0.3,0.3,0,0,0,.08-0.211v-8.1a0.277,0.277,0,0,0-.3-0.3h-0.559a0.278,0.278,0,0,0-.2.081,0.294,0.294,0,0,0-.081.217V40L275.4,33.592a0.884,0.884,0,0,0-.125-0.124,0.293,0.293,0,0,0-.186-0.05h-0.547a0.259,0.259,0,0,0-.2.081,0.312,0.312,0,0,0-.074.217v8.115a0.293,0.293,0,0,0,.074.2,0.258,0.258,0,0,0,.2.081h0Zm8.612,0h2.871a4.728,4.728,0,0,0,2.013-.36,2.277,2.277,0,0,0,1.113-1.1,4.707,4.707,0,0,0,.379-1.92q0.012-.373.012-0.982t-0.012-.969a3.533,3.533,0,0,0-.858-2.529,3.7,3.7,0,0,0-2.709-.839h-2.809a0.256,0.256,0,0,0-.2.081,0.307,0.307,0,0,0-.075.217v8.115a0.289,0.289,0,0,0,.075.2,0.255,0.255,0,0,0,.2.081h0Zm0.895-1.032V34.437H285.9a2.522,2.522,0,0,1,1.858.578,2.6,2.6,0,0,1,.59,1.821q0.026,0.721.025,0.92t-0.025.932a3.753,3.753,0,0,1-.255,1.4,1.48,1.48,0,0,1-.745.758,3.3,3.3,0,0,1-1.386.242h-1.914ZM213.977,57.03h0.46a0.381,0.381,0,0,0,.4-0.311l1.553-4.785,1.541,4.785a0.4,0.4,0,0,0,.41.311h0.448a0.356,0.356,0,0,0,.385-0.323l1.616-7.991a0.722,0.722,0,0,0,.012-0.137,0.254,0.254,0,0,0-.248-0.249h-0.6a0.267,0.267,0,0,0-.311.211l-1.28,6.487L217,50.556a0.39,0.39,0,0,0-.4-0.3h-0.435a0.36,0.36,0,0,0-.386.3L214.4,55.029l-1.28-6.487a0.258,0.258,0,0,0-.3-0.211h-0.609a0.256,0.256,0,0,0-.249.249l0.025,0.137,1.6,7.991a0.366,0.366,0,0,0,.385.323h0Zm8.737,0h0.621a0.277,0.277,0,0,0,.286-0.286V48.617a0.259,0.259,0,0,0-.286-0.286h-0.621a0.258,0.258,0,0,0-.2.081,0.29,0.29,0,0,0-.075.2v8.128a0.289,0.289,0,0,0,.075.205,0.258,0.258,0,0,0,.2.081h0Zm3.368,0h0.6a0.3,0.3,0,0,0,.211-0.081,0.268,0.268,0,0,0,.087-0.205V53.165H231.3v3.579a0.277,0.277,0,0,0,.286.286h0.6a0.3,0.3,0,0,0,.211-0.081,0.268,0.268,0,0,0,.087-0.205V48.629a0.279,0.279,0,0,0-.3-0.3h-0.6a0.278,0.278,0,0,0-.2.081,0.294,0.294,0,0,0-.081.218v3.455h-4.325V48.629a0.277,0.277,0,0,0-.3-0.3h-0.6a0.258,0.258,0,0,0-.2.081,0.307,0.307,0,0,0-.075.218v8.115a0.289,0.289,0,0,0,.075.205,0.258,0.258,0,0,0,.2.081h0Zm8.848,0H237.8a4.734,4.734,0,0,0,2.013-.36,2.279,2.279,0,0,0,1.112-1.1,4.689,4.689,0,0,0,.379-1.92c0.008-.249.013-0.576,0.013-0.982s-0.005-.729-0.013-0.969a3.528,3.528,0,0,0-.857-2.529,3.7,3.7,0,0,0-2.709-.839H234.93a0.258,0.258,0,0,0-.2.081,0.307,0.307,0,0,0-.074.218v8.115a0.289,0.289,0,0,0,.074.205,0.258,0.258,0,0,0,.2.081h0ZM235.825,56V49.35h1.851a2.52,2.52,0,0,1,1.858.578,2.6,2.6,0,0,1,.591,1.821q0.024,0.721.024,0.92t-0.024.932a3.774,3.774,0,0,1-.255,1.4,1.481,1.481,0,0,1-.746.758,3.3,3.3,0,0,1-1.385.242h-1.914Zm7.655,1.031h0.6a0.3,0.3,0,0,0,.212-0.081,0.268,0.268,0,0,0,.087-0.205V53.513h2.212l1.827,3.181a0.808,0.808,0,0,0,.192.248,0.445,0.445,0,0,0,.292.087h0.547a0.256,0.256,0,0,0,.249-0.248,0.309,0.309,0,0,0-.038-0.137l-1.914-3.318a2.307,2.307,0,0,0,1.79-2.4,2.366,2.366,0,0,0-.8-1.933,3.373,3.373,0,0,0-2.218-.665H243.48a0.258,0.258,0,0,0-.2.081,0.307,0.307,0,0,0-.075.218v8.115a0.289,0.289,0,0,0,.075.205,0.258,0.258,0,0,0,.2.081h0Zm0.9-4.536V49.338h2.087q1.877,0,1.877,1.578t-1.877,1.578h-2.087Zm6.362,4.536h0.6a0.327,0.327,0,0,0,.311-0.211l0.683-1.79h4.114l0.7,1.79a0.32,0.32,0,0,0,.105.143,0.306,0.306,0,0,0,.2.068h0.584a0.26,0.26,0,0,0,.181-0.075,0.232,0.232,0,0,0,.08-0.174l-0.025-.137L255.186,48.6a0.386,0.386,0,0,0-.4-0.273h-0.8a0.387,0.387,0,0,0-.4.273l-3.082,8.041-0.025.137a0.254,0.254,0,0,0,.248.248h0Zm3.654-7.494,1.7,4.461h-3.405Zm6.375,7.494h0.46a0.381,0.381,0,0,0,.4-0.311l1.553-4.785,1.541,4.785a0.4,0.4,0,0,0,.41.311h0.448a0.356,0.356,0,0,0,.385-0.323l1.616-7.991a0.722,0.722,0,0,0,.012-0.137,0.254,0.254,0,0,0-.248-0.249h-0.6a0.267,0.267,0,0,0-.311.211l-1.28,6.487-1.367-4.474a0.39,0.39,0,0,0-.4-0.3h-0.435a0.36,0.36,0,0,0-.386.3l-1.379,4.474-1.28-6.487a0.258,0.258,0,0,0-.3-0.211H259a0.256,0.256,0,0,0-.249.249l0.025,0.137,1.6,7.991a0.366,0.366,0,0,0,.385.323h0Zm7.532,0h0.6a0.327,0.327,0,0,0,.311-0.211l0.683-1.79H274l0.7,1.79a0.32,0.32,0,0,0,.105.143,0.306,0.306,0,0,0,.2.068h0.584a0.26,0.26,0,0,0,.181-0.075,0.232,0.232,0,0,0,.08-0.174l-0.024-.137L272.747,48.6a0.388,0.388,0,0,0-.4-0.273h-0.8a0.387,0.387,0,0,0-.4.273l-3.082,8.041-0.025.137a0.256,0.256,0,0,0,.249.248h0Zm3.653-7.494,1.7,4.461h-3.4Zm5.518,7.494h5.046a0.3,0.3,0,0,0,.211-0.081,0.268,0.268,0,0,0,.087-0.205V56.272a0.278,0.278,0,0,0-.081-0.205,0.293,0.293,0,0,0-.217-0.081h-4.151v-7.37a0.29,0.29,0,0,0-.075-0.2,0.258,0.258,0,0,0-.2-0.081h-0.621a0.258,0.258,0,0,0-.2.081,0.289,0.289,0,0,0-.074.2v8.128a0.289,0.289,0,0,0,.074.205,0.258,0.258,0,0,0,.2.081h0Z"/>
  <path id="_2000_" data-name="2000+" class="cls-1" d="M411.022,25.182h16.406A0.741,0.741,0,0,0,428,24.946a0.781,0.781,0,0,0,.22-0.551V21.026a0.754,0.754,0,0,0-.787-0.787h-7.967l2.614-2.614a22,22,0,0,0,4.267-3.968,6.558,6.558,0,0,0,1.4-4.094,6.5,6.5,0,0,0-.992-3.59,6.448,6.448,0,0,0-2.913-2.393,11.215,11.215,0,0,0-4.566-.85,9.8,9.8,0,0,0-4.5.992A7.638,7.638,0,0,0,411.731,6.4a7.217,7.217,0,0,0-1.15,3.763,0.63,0.63,0,0,0,.2.457,0.664,0.664,0,0,0,.488.2h4.157a0.966,0.966,0,0,0,1.07-.724,3.83,3.83,0,0,1,.882-1.842,2.4,2.4,0,0,1,1.889-.74,2.06,2.06,0,0,1,2.331,2.33,3.2,3.2,0,0,1-.8,1.937,15.631,15.631,0,0,1-2.331,2.283q-1.527,1.26-4.518,3.527l-2.929,2.866a1.938,1.938,0,0,0-.787,1.574V24.4a0.807,0.807,0,0,0,.787.787h0ZM440.338,25.5q4.377-.032,6.645-2.3a8.875,8.875,0,0,0,2.487-5.983q0.063-.85.063-3.054,0-2.267-.063-3.149a9.338,9.338,0,0,0-1.181-4.2,7.488,7.488,0,0,0-3.07-2.913,11.625,11.625,0,0,0-9.746,0,7.507,7.507,0,0,0-3.054,2.913,9.325,9.325,0,0,0-1.181,4.2q-0.063,1.764-.063,3.149,0,1.354.063,3.054a8.871,8.871,0,0,0,2.488,5.983q2.267,2.267,6.612,2.3h0Zm0-4.755q-2.834,0-2.991-3.684-0.031-.913-0.032-2.96t0.032-2.9q0.158-3.684,2.991-3.684a2.552,2.552,0,0,1,2.2.992,4.8,4.8,0,0,1,.787,2.692q0.063,0.85.063,2.9t-0.063,2.96a4.748,4.748,0,0,1-.787,2.724,2.585,2.585,0,0,1-2.2.96h0ZM461.877,25.5q4.375-.032,6.644-2.3a8.875,8.875,0,0,0,2.487-5.983q0.063-.85.063-3.054,0-2.267-.063-3.149a9.337,9.337,0,0,0-1.18-4.2A7.491,7.491,0,0,0,466.757,3.9a11.623,11.623,0,0,0-9.745,0,7.5,7.5,0,0,0-3.055,2.913,9.338,9.338,0,0,0-1.181,4.2q-0.063,1.764-.063,3.149,0,1.354.063,3.054a8.871,8.871,0,0,0,2.488,5.983q2.266,2.267,6.613,2.3h0Zm0-4.755q-2.835,0-2.992-3.684-0.032-.913-0.031-2.96t0.031-2.9q0.158-3.684,2.992-3.684a2.55,2.55,0,0,1,2.2.992,4.8,4.8,0,0,1,.787,2.692q0.063,0.85.063,2.9t-0.063,2.96a4.748,4.748,0,0,1-.787,2.724,2.583,2.583,0,0,1-2.2.96h0ZM483.415,25.5q4.375-.032,6.644-2.3a8.875,8.875,0,0,0,2.488-5.983q0.062-.85.063-3.054,0-2.267-.063-3.149a9.338,9.338,0,0,0-1.181-4.2A7.494,7.494,0,0,0,488.3,3.9a11.625,11.625,0,0,0-9.746,0A7.5,7.5,0,0,0,475.5,6.808a9.338,9.338,0,0,0-1.181,4.2q-0.063,1.764-.063,3.149,0,1.354.063,3.054A8.875,8.875,0,0,0,476.8,23.2q2.268,2.267,6.613,2.3h0Zm0-4.755q-2.835,0-2.992-3.684-0.032-.913-0.031-2.96t0.031-2.9q0.158-3.684,2.992-3.684a2.55,2.55,0,0,1,2.2.992,4.788,4.788,0,0,1,.787,2.692q0.063,0.85.063,2.9t-0.063,2.96a4.741,4.741,0,0,1-.787,2.724,2.583,2.583,0,0,1-2.2.96h0Zm19.019,1.889h2.708a0.806,0.806,0,0,0,.819-0.819V16.145h5.479a0.818,0.818,0,0,0,.582-0.22,0.738,0.738,0,0,0,.237-0.567V12.9a0.74,0.74,0,0,0-.237-0.567,0.821,0.821,0,0,0-.582-0.22h-5.479V6.6a0.742,0.742,0,0,0-.236-0.567,0.825,0.825,0,0,0-.583-0.22h-2.708a0.783,0.783,0,0,0-.551.22,0.739,0.739,0,0,0-.236.567v5.511h-5.542a0.783,0.783,0,0,0-.551.22,0.74,0.74,0,0,0-.237.567v2.456a0.809,0.809,0,0,0,.788.787h5.542v5.668a0.821,0.821,0,0,0,.22.583,0.741,0.741,0,0,0,.567.236h0Z"/>
  <path id="games" class="cls-1" d="M444.552,42.477a4,4,0,0,0,1.877-.416,2.846,2.846,0,0,0,1.211-1.181,3.639,3.639,0,0,0,.417-1.771V37.928a0.279,0.279,0,0,0-.3-0.3h-2.783a0.27,0.27,0,0,0-.206.087,0.3,0.3,0,0,0-.08.211V38.3a0.3,0.3,0,0,0,.08.211,0.27,0.27,0,0,0,.206.087h1.9v0.534a2.229,2.229,0,0,1-.634,1.734,2.411,2.411,0,0,1-1.69.578,2.27,2.27,0,0,1-1.64-.572,2.472,2.472,0,0,1-.634-1.777q-0.014-.373-0.013-1.106t0.013-1.106a2.454,2.454,0,0,1,.634-1.765,2.271,2.271,0,0,1,1.64-.572,2.364,2.364,0,0,1,1.442.4,2.025,2.025,0,0,1,.733.982,0.469,0.469,0,0,0,.105.186,0.249,0.249,0,0,0,.168.05h0.7a0.272,0.272,0,0,0,.18-0.068,0.211,0.211,0,0,0,.081-0.168V35.9a2.025,2.025,0,0,0-.41-1.025,3.129,3.129,0,0,0-1.143-.951,3.951,3.951,0,0,0-1.852-.4,3.432,3.432,0,0,0-2.517.889,3.392,3.392,0,0,0-.95,2.4q-0.013.361-.013,1.168t0.013,1.168a3.482,3.482,0,0,0,.957,2.423,3.392,3.392,0,0,0,2.51.895h0Zm4.524-.124h0.6a0.327,0.327,0,0,0,.311-0.211l0.683-1.79h4.114l0.7,1.79a0.32,0.32,0,0,0,.105.143,0.306,0.306,0,0,0,.2.068h0.584a0.26,0.26,0,0,0,.181-0.075,0.232,0.232,0,0,0,.08-0.174l-0.024-.137-3.082-8.041a0.388,0.388,0,0,0-.4-0.273h-0.8a0.387,0.387,0,0,0-.4.273l-3.082,8.041-0.025.137a0.256,0.256,0,0,0,.249.248h0Zm3.653-7.494,1.7,4.461h-3.405Zm5.53,7.494h0.56a0.275,0.275,0,0,0,.285-0.286V35.89L461.217,40a0.431,0.431,0,0,0,.4.261h0.373a0.414,0.414,0,0,0,.4-0.261l2.125-4.113v6.176a0.289,0.289,0,0,0,.075.205,0.258,0.258,0,0,0,.2.081h0.571a0.275,0.275,0,0,0,.286-0.286V33.952a0.311,0.311,0,0,0-.074-0.218,0.274,0.274,0,0,0-.212-0.081h-0.584a0.32,0.32,0,0,0-.3.186L461.8,38.923l-2.647-5.083a0.313,0.313,0,0,0-.31-0.186h-0.585a0.273,0.273,0,0,0-.211.081,0.307,0.307,0,0,0-.074.218v8.115a0.275,0.275,0,0,0,.285.286h0Zm9.843,0h5.207a0.3,0.3,0,0,0,.211-0.081,0.268,0.268,0,0,0,.087-0.205V41.619a0.277,0.277,0,0,0-.3-0.3h-4.337V38.45h3.964a0.3,0.3,0,0,0,.218-0.081,0.276,0.276,0,0,0,.08-0.205V37.742a0.277,0.277,0,0,0-.3-0.3h-3.964V34.672h4.238a0.307,0.307,0,0,0,.217-0.075,0.257,0.257,0,0,0,.081-0.2V33.952a0.279,0.279,0,0,0-.3-0.3H468.1a0.258,0.258,0,0,0-.2.081,0.307,0.307,0,0,0-.074.218v8.115a0.289,0.289,0,0,0,.074.205,0.258,0.258,0,0,0,.2.081h0Zm10.016,0.124a3.981,3.981,0,0,0,2.405-.652A2.131,2.131,0,0,0,481.412,40a1.99,1.99,0,0,0-.3-1.137,2.262,2.262,0,0,0-.9-0.739,9.977,9.977,0,0,0-1.659-.6,12.432,12.432,0,0,1-1.4-.485,1.922,1.922,0,0,1-.708-0.485,1.064,1.064,0,0,1-.23-0.708,1.1,1.1,0,0,1,.5-0.976,2.4,2.4,0,0,1,1.342-.329,2.3,2.3,0,0,1,1.305.348,1.253,1.253,0,0,1,.6.882,0.339,0.339,0,0,0,.124.186,0.313,0.313,0,0,0,.186.062h0.622a0.256,0.256,0,0,0,.261-0.261,1.968,1.968,0,0,0-.386-1.038,2.713,2.713,0,0,0-1.05-.857,3.7,3.7,0,0,0-1.659-.342,3.943,3.943,0,0,0-1.615.3,2.41,2.41,0,0,0-1.044.833,2.073,2.073,0,0,0-.361,1.2,2.126,2.126,0,0,0,.286,1.15,2.26,2.26,0,0,0,.852.764,7.486,7.486,0,0,0,1.522.584q1.006,0.3,1.51.5a2.122,2.122,0,0,1,.758.479,0.98,0.98,0,0,1,.255.7,1.2,1.2,0,0,1-.522,1.032,2.722,2.722,0,0,1-1.579.373,2.567,2.567,0,0,1-1.51-.379,1.5,1.5,0,0,1-.64-0.9,0.317,0.317,0,0,0-.31-0.248h-0.609a0.254,0.254,0,0,0-.187.075,0.241,0.241,0,0,0-.074.174A2.011,2.011,0,0,0,475.2,41.3a2.71,2.71,0,0,0,1.144.851,4.457,4.457,0,0,0,1.77.323h0Z"/>
  <path id="_24_7" data-name="24/7" class="cls-1" d="M2.066,24.533H18.472a0.741,0.741,0,0,0,.567-0.236,0.783,0.783,0,0,0,.221-0.551V20.376a0.755,0.755,0,0,0-.787-0.787H10.505l2.614-2.614a21.979,21.979,0,0,0,4.267-3.968,6.559,6.559,0,0,0,1.4-4.094,6.492,6.492,0,0,0-.992-3.59,6.452,6.452,0,0,0-2.913-2.393,11.219,11.219,0,0,0-4.566-.85,9.808,9.808,0,0,0-4.5.992A7.639,7.639,0,0,0,2.774,5.75,7.212,7.212,0,0,0,1.625,9.513a0.63,0.63,0,0,0,.2.457,0.665,0.665,0,0,0,.488.2H6.474A0.966,0.966,0,0,0,7.545,9.45a3.828,3.828,0,0,1,.882-1.842,2.4,2.4,0,0,1,1.889-.74,2.06,2.06,0,0,1,2.33,2.33,3.2,3.2,0,0,1-.8,1.937,15.591,15.591,0,0,1-2.33,2.283q-1.528,1.26-4.519,3.527L2.066,19.81a1.939,1.939,0,0,0-.787,1.575v2.362a0.755,0.755,0,0,0,.236.551,0.755,0.755,0,0,0,.551.236h0Zm30.67,0H36.83a0.821,0.821,0,0,0,.582-0.22,0.74,0.74,0,0,0,.236-0.567V20.282h2.8a0.741,0.741,0,0,0,.567-0.236,0.784,0.784,0,0,0,.22-0.551V16.188a0.781,0.781,0,0,0-.819-0.787H37.648V3.278a0.741,0.741,0,0,0-.236-0.567,0.823,0.823,0,0,0-.582-0.22H32.043a1.435,1.435,0,0,0-1.165.535L21.746,15.37a1.589,1.589,0,0,0-.346.945v3.18a0.807,0.807,0,0,0,.787.787h9.762v3.464a0.807,0.807,0,0,0,.787.787h0Zm-0.661-16v7.085h-5.07ZM43.316,27.178h2.928a1.158,1.158,0,0,0,1.165-.787L58.116,0.759A0.844,0.844,0,0,0,58.179.444,0.658,0.658,0,0,0,57.99-.013a0.617,0.617,0,0,0-.472-0.2H54.526A1.193,1.193,0,0,0,53.361.57L42.718,26.2a0.834,0.834,0,0,0-.063.315,0.7,0.7,0,0,0,.661.661h0Zm20-2.645h4.282a1.172,1.172,0,0,0,1.134-.756L75.97,7.686q0.031-.063.189-0.472a2.722,2.722,0,0,0,.157-0.976V3.309A0.807,0.807,0,0,0,75.5,2.491H60.6a0.807,0.807,0,0,0-.819.819V6.616a0.807,0.807,0,0,0,.819.819h9.352L62.713,23.557a0.622,0.622,0,0,0-.063.283,0.7,0.7,0,0,0,.189.488,0.615,0.615,0,0,0,.472.2h0Z"/>
  <path id="live_chat" data-name="live chat" class="cls-1" d="M9.736,41.7h5.046a0.3,0.3,0,0,0,.211-0.081,0.268,0.268,0,0,0,.087-0.2V40.945A0.278,0.278,0,0,0,15,40.74a0.294,0.294,0,0,0-.217-0.081H10.631V33.29a0.291,0.291,0,0,0-.075-0.205,0.258,0.258,0,0,0-.2-0.081H9.736a0.258,0.258,0,0,0-.2.081,0.291,0.291,0,0,0-.075.205v8.128a0.29,0.29,0,0,0,.075.2,0.257,0.257,0,0,0,.2.081h0Zm6.972,0h0.621a0.276,0.276,0,0,0,.286-0.286V33.29A0.26,0.26,0,0,0,17.329,33H16.708a0.258,0.258,0,0,0-.2.081,0.291,0.291,0,0,0-.075.205v8.128a0.29,0.29,0,0,0,.075.2,0.257,0.257,0,0,0,.2.081h0Zm5.679,0h0.758a0.45,0.45,0,0,0,.447-0.323l2.8-7.991a0.593,0.593,0,0,0,.012-0.137A0.255,0.255,0,0,0,26.153,33h-0.6a0.326,0.326,0,0,0-.218.068,0.317,0.317,0,0,0-.106.155L22.76,40.336,20.3,33.228a0.32,0.32,0,0,0-.106-0.155A0.327,0.327,0,0,0,19.976,33h-0.6a0.259,0.259,0,0,0-.18.075,0.23,0.23,0,0,0-.081.174l0.025,0.137,2.8,7.991a0.449,0.449,0,0,0,.447.323h0Zm5.8,0H33.4a0.3,0.3,0,0,0,.211-0.081,0.268,0.268,0,0,0,.087-0.2V40.97a0.278,0.278,0,0,0-.3-0.3H29.061V37.8h3.964a0.294,0.294,0,0,0,.218-0.081,0.278,0.278,0,0,0,.081-0.205V37.093a0.278,0.278,0,0,0-.3-0.3H29.061V34.023H33.3a0.308,0.308,0,0,0,.218-0.075,0.258,0.258,0,0,0,.081-0.2V33.3a0.278,0.278,0,0,0-.3-0.3H28.191a0.258,0.258,0,0,0-.2.081,0.308,0.308,0,0,0-.075.218v8.115a0.29,0.29,0,0,0,.075.2,0.257,0.257,0,0,0,.2.081h0ZM41.6,41.828a4.108,4.108,0,0,0,1.877-.392,2.778,2.778,0,0,0,1.591-2.38,0.225,0.225,0,0,0-.081-0.18,0.29,0.29,0,0,0-.193-0.068H44.172a0.3,0.3,0,0,0-.2.062,0.392,0.392,0,0,0-.112.211,2.085,2.085,0,0,1-.771,1.33A2.584,2.584,0,0,1,41.6,40.8q-2.162,0-2.249-2.4-0.012-.36-0.012-1.056T39.35,36.31Q39.437,33.9,41.6,33.9a2.58,2.58,0,0,1,1.5.385,2.109,2.109,0,0,1,.764,1.342,0.391,0.391,0,0,0,.112.211,0.3,0.3,0,0,0,.2.062h0.621a0.289,0.289,0,0,0,.193-0.068,0.224,0.224,0,0,0,.081-0.18,2.778,2.778,0,0,0-1.591-2.38A4.108,4.108,0,0,0,41.6,32.88a3.326,3.326,0,0,0-2.517.9,3.636,3.636,0,0,0-.926,2.467q-0.012.348-.012,1.118t0.012,1.094a3.636,3.636,0,0,0,.926,2.467,3.325,3.325,0,0,0,2.517.9h0Zm5.431-.124h0.6a0.3,0.3,0,0,0,.211-0.081,0.268,0.268,0,0,0,.087-0.2V37.838H52.25v3.579a0.276,0.276,0,0,0,.286.286h0.6a0.3,0.3,0,0,0,.211-0.081,0.268,0.268,0,0,0,.087-0.2V33.3a0.278,0.278,0,0,0-.3-0.3h-0.6a0.278,0.278,0,0,0-.205.081,0.294,0.294,0,0,0-.081.218v3.455H47.925V33.3a0.278,0.278,0,0,0-.3-0.3h-0.6a0.258,0.258,0,0,0-.2.081,0.309,0.309,0,0,0-.075.218v8.115a0.29,0.29,0,0,0,.075.2,0.257,0.257,0,0,0,.2.081h0Zm7.978,0h0.6a0.326,0.326,0,0,0,.311-0.211L56.6,39.7h4.113l0.7,1.79a0.326,0.326,0,0,0,.106.143,0.306,0.306,0,0,0,.205.068H62.3a0.26,0.26,0,0,0,.18-0.075,0.23,0.23,0,0,0,.081-0.174l-0.025-.137-3.082-8.041A0.387,0.387,0,0,0,59.06,33h-0.8a0.387,0.387,0,0,0-.4.273l-3.082,8.041-0.025.137a0.255,0.255,0,0,0,.248.249h0Zm3.654-7.494,1.7,4.462H56.96ZM65.175,41.7h0.6a0.3,0.3,0,0,0,.211-0.081,0.268,0.268,0,0,0,.087-0.2V34.073h2.386a0.276,0.276,0,0,0,.286-0.286V33.3a0.309,0.309,0,0,0-.075-0.218A0.274,0.274,0,0,0,68.456,33H62.49a0.278,0.278,0,0,0-.205.081,0.294,0.294,0,0,0-.081.218v0.485a0.276,0.276,0,0,0,.286.286h2.4v7.345a0.276,0.276,0,0,0,.286.286h0Z"/>
</svg>
