<svg width="435" height="90" viewBox="0 0 435 90" fill="none" xmlns="http://www.w3.org/2000/svg">
<rect width="435" height="90" rx="45" fill="url(#paint0_linear_1154_5853)"/>
<path d="M113.385 59.9522C110.585 59.9522 108.208 59.391 106.253 58.2685C104.298 57.1461 102.804 55.5885 101.77 53.5959C100.748 51.5906 100.237 49.2763 100.237 46.6531V45.5559C100.237 42.8065 100.748 40.3913 101.77 38.3104C102.791 36.2168 104.254 34.5773 106.159 33.3918C108.076 32.2063 110.358 31.6135 113.007 31.6135C114.937 31.6135 116.809 31.8973 118.625 32.4648C120.442 33.0197 122.031 33.871 123.393 35.0187V41.2994H118.985L118.096 37.705C117.629 37.2762 116.992 36.9231 116.185 36.6456C115.378 36.3682 114.457 36.2294 113.423 36.2294C111.897 36.2294 110.598 36.6204 109.526 37.4023C108.467 38.1843 107.66 39.2752 107.105 40.6751C106.55 42.0624 106.272 43.6767 106.272 45.518V46.6531C106.272 48.4187 106.556 49.9511 107.124 51.2501C107.691 52.5491 108.517 53.558 109.602 54.2769C110.686 54.9958 112.017 55.3552 113.593 55.3552C114.476 55.3552 115.315 55.2669 116.109 55.0904C116.917 54.9138 117.56 54.712 118.039 54.485V50.3609L114.52 50.0204V45.8018H124.131V57.0767C122.781 57.9974 121.205 58.7099 119.401 59.2144C117.61 59.7063 115.605 59.9522 113.385 59.9522ZM126.59 59.5549V55.9606L129.484 55.3741V36.2105L126.59 35.6241V32.0108H148.288V39.7103H143.654L143.445 36.6835H135.576V42.9831H144.618V47.6557H135.576V54.8823H143.862L144.07 51.7419H148.629V59.5549H126.59ZM157.917 59.5549V55.9606L160.831 55.3741V36.7024H156.196L155.95 39.8427H151.372V32.0108H176.438V39.8427H171.822L171.576 36.7024H166.922V55.3741L169.836 55.9606V59.5549H157.917ZM187.353 59.5549V55.9606L190.248 55.3741V36.2105L187.353 35.6241V32.0108H199.215V35.6241L196.32 36.2105V55.3741L199.215 55.9606V59.5549H187.353ZM207.255 59.5549V55.9606L210.168 55.3741V36.7024H205.533L205.287 39.8427H200.709V32.0108H225.775V39.8427H221.159L220.913 36.7024H216.26V55.3741L219.173 55.9606V59.5549H207.255ZM236.672 59.5549V55.9606L239.566 55.3741V36.2105L236.672 35.6241V32.0108H239.566H245.752L257.273 50.3799L257.387 50.3609V36.2105L253.811 35.6241V32.0108H262.797H265.691V35.6241L262.797 36.2105V59.5549H256.838L245.09 41.4696L244.977 41.4886V55.3741L248.571 55.9606V59.5549H236.672ZM280.163 59.9522C278.284 59.9522 276.563 59.6054 274.999 58.9117C273.448 58.2181 272.098 57.2407 270.951 55.9795C269.816 54.7183 268.939 53.2427 268.321 51.5528C267.716 49.8502 267.413 47.9962 267.413 45.991V45.5559C267.413 43.5632 267.716 41.7219 268.321 40.0319C268.939 38.3419 269.816 36.8663 270.951 35.6052C272.086 34.344 273.429 33.3666 274.98 32.6729C276.531 31.9667 278.246 31.6135 280.126 31.6135C282.005 31.6135 283.726 31.9667 285.29 32.6729C286.854 33.3666 288.216 34.344 289.376 35.6052C290.537 36.8663 291.432 38.3419 292.063 40.0319C292.706 41.7219 293.027 43.5632 293.027 45.5559V45.991C293.027 47.9962 292.706 49.8502 292.063 51.5528C291.432 53.2427 290.537 54.7183 289.376 55.9795C288.229 57.2407 286.867 58.2181 285.29 58.9117C283.726 59.6054 282.017 59.9522 280.163 59.9522ZM280.163 55.2985C281.639 55.2985 282.881 54.9138 283.89 54.1445C284.899 53.3625 285.662 52.2779 286.179 50.8906C286.709 49.4907 286.974 47.8575 286.974 45.991V45.518C286.974 43.6893 286.709 42.0876 286.179 40.7129C285.65 39.3256 284.88 38.241 283.871 37.4591C282.862 36.6772 281.614 36.2862 280.126 36.2862C278.625 36.2862 277.383 36.6709 276.399 37.4402C275.415 38.2095 274.684 39.2878 274.204 40.6751C273.725 42.0498 273.486 43.6641 273.486 45.518V45.991C273.486 47.8449 273.725 49.4718 274.204 50.8717C274.696 52.2716 275.434 53.3625 276.418 54.1445C277.414 54.9138 278.663 55.2985 280.163 55.2985ZM304.151 59.5549L297.795 35.9078L294.825 35.6241V32.0108H306.573V35.6241L303.546 36.0592L306.667 48.9232L307.178 51.0231L307.291 51.042L307.878 48.9043L313.288 32.0108H317.62L323.277 49.5286L323.807 51.2122H323.92L324.374 49.5286L327.647 36.0592L324.506 35.6241V32.0108H336.046V35.6241L333.246 35.9078L326.701 59.5549H321.234L316.258 44.383L315.634 42.2642H315.521L314.783 44.4775L309.732 59.5549H304.151Z" fill="black"/>
<defs>
<linearGradient id="paint0_linear_1154_5853" x1="435" y1="45" x2="-2.1691e-06" y2="45" gradientUnits="userSpaceOnUse">
<stop stop-color="#FFFE7A"/>
<stop offset="1" stop-color="#FFA101"/>
</linearGradient>
</defs>
</svg>
