<svg enable-background="new 0 0 900 600" height="258.072785" viewBox="0 0 900 600" width="387.487584" xmlns="http://www.w3.org/2000/svg" xmlns:xlink="http://www.w3.org/1999/xlink"><radialGradient id="a" cx="438.84040242" cy="163.07851714" gradientUnits="userSpaceOnUse" r="382.39406548"><stop offset="0" stop-color="#ffc20e"/><stop offset=".6" stop-color="#f26522"/></radialGradient><path d="m0 300.015c0-160.503 201.478-290.617 449.98-290.617 248.542 0 450.02 130.114 450.02 290.617s-201.478 290.587-450.02 290.587c-248.502 0-449.98-130.085-449.98-290.587z" fill="#ffc20e"/><path d="m8.362 300.015c0-157.126 197.222-284.483 440.473-284.483 243.261 0 440.434 127.361 440.434 284.483 0 157.096-197.173 284.454-440.434 284.454-243.254-.001-440.473-127.361-440.473-284.454z" fill="#1c5839"/><path d="m256.534 105.66c-4.23-7.217-10.967-9.355-18.399-5.884-8.362 3.87-10.065 13.348-3.562 27.316 4.723 10.16 11.35 18.678 23.43 13.072 7.62-3.532 8.781-10.562 6.458-17.902l22.81-10.623c6.582 19.699-1.547 37.167-20.676 46.055-23.926 11.087-45.218 3.159-56.137-20.381-10.886-23.446-1.752-45.377 18.46-54.762 22.116-10.283 39.568-5.08 50.1 12.67z" fill="#ffc20e"/><path d="m305.003 138.523 11.412-84.03 26.018-5.511 44.518 72.135-25.467 5.42-5.219-9.663-25.473 5.42-.743 10.935zm29.194-63.215-1.982 29.671 16.154-3.406z" fill="#ffc20e"/><path d="m435.516 62.703c-.587-2.757-2.105-4.366-3.996-5.265-1.92-.931-4.305-1.272-6.815-1.177-5.761.217-8.239 1.982-8.116 4.862.464 11.957 46.026 2.696 47.187 31.718.743 18.49-14.295 28.091-36.191 28.99-21.062.837-35.279-10.902-36.457-25.272l25.058-1.022c.649 2.851 2.293 4.895 4.583 6.163 2.167 1.239 4.956 1.797 7.493 1.671 6.536-.247 10.779-2.54 10.623-6.319-.526-12.047-45.994-1.92-47.236-32.366-.714-16.942 13.565-26.08 33.511-26.855 22.145-.928 32.678 9.975 35.124 23.848z" fill="#ffc20e"/><path d="m476.988 119.751 6.04-79.599 26.093 2.014-6.085 79.567z" fill="#ffc20e"/><path d="m578.843 98.164 2.913-17.964 5.45-24.808 24.439 5.355-17.082 77.961-23.926-5.235-18.507-48.567-2.942 17.964-5.42 24.718-24.468-5.359 17.111-77.958 23.926 5.235z" fill="#ffc20e"/><path d="m699.56 143.2c-12.158 24.283-35.386 29.732-56.481 19.142-22.379-11.243-30.401-32.613-18.194-56.896 11.227-22.392 33.713-29.33 55.907-18.211 25.428 12.788 28.214 37.165 18.768 55.965zm-51.417-25.83c-4.567 9.134-7.513 21.928 3.685 27.533 10.098 5.08 18.46-1.641 24.345-13.442 4.879-9.692 6.118-21.99-4.337-26.884-10.604-5.327-19.155 3.811-23.693 12.793z" fill="#ffc20e"/><path d="m235.317 480.184 5.991-17.189 9.679-23.478 23.154 9.54-30.384 73.809-22.658-9.355-9.786-51.041-6.007 17.189-9.631 23.384-23.154-9.54 30.43-73.809 22.642 9.323z" fill="#ffc20e"/><path d="m267.45 528.902 20.364-77.186 25.276 6.659-20.319 77.186z" fill="#ffc20e"/><path d="m310.222 540.768 39.691-74.954 26.32 3.779 16.971 83.099-25.795-3.714-1.593-10.873-25.785-3.685-4.444 9.975zm49.218-49.28-12.08 27.16 16.339 2.355z" fill="#ffc20e"/><path d="m487.673 554.116-16.848-.094-.96-7.866c-4.337 5.051-11.584 9.663-24.095 9.602-20.413-.123-38.624-13.442-38.439-41.258.156-25.49 16.232-42.899 42.03-42.743 19.187.094 34.549 10.16 37.647 29.827l-24.854-.156c-1.829-6.565-6.598-10.127-13.348-10.16-10.315-.094-15.239 9.199-15.301 23.29-.091 11.305 3.409 21.62 16.602 21.714 5.297.029 12.08-3.594 13.442-9.138l-11.493-.062.062-17.283 35.821.217z" fill="#ffc20e"/><path d="m504.739 552.845 17.189-83.008 26.372-3.717 39.412 75.048-25.785 3.623-4.538-10.004-25.814 3.656-1.473 10.841zm33.498-61.016-4.026 29.424 16.368-2.29z" fill="#ffc20e"/><path d="m620.811 503.257 7.944 26.667-25.058 7.493-22.843-76.501 36.129-10.779c25.477-7.587 35.928-3.189 40.372 11.678 2.634 8.794.931 17.439-7.279 22.548 8.982.525 14.402.993 19.018 16.417 2.975 9.975 3.669 13.471 6.659 12.576l.697 2.323-25.396 7.59c-1.132-1.518-3.221-6.196-5.268-13.011-2.988-10.004-5.651-12.761-17.344-9.29zm-5.031-16.787 9.881-2.942c7.772-2.323 11.337-5.482 9.757-10.779-1.625-5.42-6.627-6.692-12.466-4.957l-11.691 3.5z" fill="#ffc20e"/><path d="m688.95 511.25-10.328-84.153 23.77-11.957 61.434 58.414-23.307 11.739-7.464-8.022-23.277 11.707 2.06 10.747zm12.158-68.545 5.654 29.175 14.711-7.432z" fill="#ffc20e"/><path d="m85.717 344.399-30.664-44.631 30.664-44.664 30.663 44.664z" fill="#af1e23"/><path d="m814.234 344.399-30.663-44.631 30.663-44.664 30.664 44.664z" fill="#af1e23"/><path d="m545.98 186.962s11.382-6.102 21.866-5.232c10.5.899 15.765 5.232 22.765 5.232 6.971 0 13.085-4.337 21.837-4.337s25.399 3.468 30.631 6.968c5.219 3.5 13.968 6.134 20.984 8.768 7 2.602 20.131 9.602 20.131 9.602l41.968 48.102-90.099-23.602z" fill="#0e3c24"/><path d="m383.327 185.23s-18.36-7.866-27.994-6.102c-9.647 1.735-33.22 3.5-39.383 3.5-6.118 0-11.334-2.634-19.203-2.634-7.899 0-10.533 12.236-19.236 13.102-8.752.899-17.5-7-24.516-5.232-7 1.732-45.484 21.866-69.099 54.233.004 0 80.488-45.468 199.431-56.867z" fill="#0e3c24"/><path d="m624.032 359.577 40.992 1.272s12.622-62.566 25.292-66.313c10.176-2.975 26.125 2.355 34.952-5.232 9.29-7.928 5.699-23.819-.775-33.233-14.279-20.812-45.87-32.863-69.612-40.979-29.998-10.221-49.477-10.902-90.239-23.54-24.701-7.681-55.131-9.29-81.614-10.623-29.486-1.427-58.943 2.54-88.273 2.478-24.166-.062-68.149 5.112-109.39 15.826-16.06 4.149-26.404 5.388-41.118 13.102-4.678 2.478-8.933 5.544-13.504 8.145-6.938 3.964-22.191 7.681-29.346 11.087-3.484 1.706-17.964 10.779-20.984 14.033-10.886 11.645-7.633 53.646 10.841 52.994.032 10.932 66.206 73.9 66.206 73.9z" fill="#75c594"/><path d="m647.446 304.754c-7.542-4.12-7.354-7.837-12.31-14.652-6.147-8.457-10.763 2.323-19.281-9.196-2.199-2.975 9.803-5.33 11.506-9.138-6.783-.928-13.598 8.736-19.125 6.007-5.654-2.757 14.587-12.297 13.04-12.978-1.547-.649-11.879 5.699-18.272 7.188-4.833 1.116-4.415-.681-10.176-.341.571-8.486 19.589-13.971 26.667-16.232-7.899 1.859-28.681 4.678-32.211 13.008-5.839.993-5.375-5.417-8.083-8.547-4.879-5.638-20.799-2.076-18.892-8.641 2.277-8.083-10.529-5.203-16.926-7.127-6.815-2.073-15.33-.029-22.174-2.848 2.942-6.909 12.576-8.116 15.33-14.899-9.91 1.395-16.647 11.678-26.868 12.946-5.42.681-6.893-2.384-10.734-3.159-3.02-.62-6.844.123-9.91-.032.431-5.08 5.576-8.518 9.29-11.46-4.723-2.569-12.544 3.747-17.189 5.978-6.225 3.004-10.915 2.105-12.962 1.641-2.06-.496 5.962-5.297 9.134-7.743 4.415-3.409 12.855-11.12 11.305-10.688-1.547.402-18.506 10.902-27.845 16.417-7.714 4.554-17.75 3.192-25.678 2.138-2.54-.341-10.964-12.141-13.844-12.699-2.88-.587 10.16 12.699 9.229 12.699-2.105 0-7.123-.743-9.138-.526-2.384.247-4.739.714-7 1.456-7-1.395-13.163-8.022-20.75-6.007 3.036.899 8.054 2.384 10.935 3.931 2.478 1.333 4.026 1.859 5.359 3.964-1.272.714-2.54 1.551-3.747 2.54-8.58 7.091-15.547-3.841-17.996-2.786-2.446 1.022 9.29 8.765 4.181 13.598-2.105 1.982-10.16-.587-13.783-.587-2.913 0 6.348 5.79-9.718 5.174-3.406-.127-5.08-2.913-8.178-3.438-9.089-1.518-2.323 6.348-7.509 8.641-5.19 2.323-6.118-5.112-11.259-4.399-8.285 1.116-22.346-11.584-25.366-9.881-3.052 1.703 17.267 9.786 19.096 15.92-6.475-.308-9.183-2.352-15.301-4.522-5.839-2.105-21.526-12.326-22.1-9.105-.542 3.159 24.5 7.837 23.647 16.015-7.928 1.612-6.458-.094-12.343 6.131-2.4 2.569 8.703 7.649 4.645 9.29-1.674.652-15.145-4.768-18.399-4.305-3.254.464 8.285 8.457 3.685 8.794-4.616.311-20.332-3.25-25.165-2.91-4.879.341 13.04 7.276 3.562 9.819-7.71.493-22.269-11.181-26.914-8.301-3.176 1.982 15.022 7.493 11.97 12.823-3.918 6.75-6.163 6.812-8.982 11.554-1.781 3.036-1.625 6.689-1.317 10.221.804 10.192-14.247 21.279-12.359 31.591 2.092 11.087 24.624 21.279 28.263 31.653 2.212 6.225 5.158 11.055 6.812 17.345 2.216 8.145.311 16.355 9.339 20.073-.078 8.33 14.788 7.805 20.471 9.446 14.295 4.058 23.277 14.681 38.098 17.283 29.029 5.141 65.206 9.819 94.66 9.819 20.689.032 46.584.558 66.994-2.29 10.143-1.424 35.853-7.247 46.182-8.084 8.1-.649 9.368-1.177 17.315-2.88 7.775-1.674.96-8.395 2.864-15.612 2.167-8.145 1.966-16.508 8.44-23.073 3.64-3.688 42.354-32.863 49.51-44.291 6.63-10.533 17.267-14.123 20.598-26.511.821-3.004 2.991-8.362 3.331-10.377 1.317-7.251 1.394-11.059-5.654-14.838z" fill="#fff"/><path d="m429.136 421.614c-.714.123-5.08.714-5.018 1.953.062.743 2.757.96 3.348 1.178.775.214 1.92.464 2.634.866.681.402.775.681.308 1.207-1.395 1.518-.587 1.674-2.323 2.138-1.547.464-4.493 1.022-5.978 1.612-1.768.71-3.098 1.703-4.833 2.446-2.29 1.022-3.283 2.54-7.185 2.54-3.348 0-4.956 2.228-4.801 2.975.341 1.489 2.199 2.29 3.409 2.786.525.247 10.932 3.529 9.819 4.707-.681.681-12.359.587-14.526.649-2.507.062-6.909 3.065-9.076 3.159-2.105.094-4.772-.464-6.877-.279-2.044.185-1.022-1.395-3.098-1.797-1.116-.214-2.352-.37-3.406-.866-1.58-.837-2.199-2.942-1.92-4.616.308-1.732 1.735-3.87 3.098-4.924 1.395-1.083 3.221-1.674 4.772-2.446.866-.431 1.641-.71 2.634-.928.993-.279 1.92-.837 2.975-1.083 1.859-.496 3.902-.152 5.79-.308 4.399-.37 8.022-3.623 11.895-5.326 1.518-.62 3.996-.96 5.112-2.323.775-.993-.526-1.333-.062-2.478.308-.649 1.301-.775 2.011-1.054 1.178-.431 2.478-.837 3.717-1.145 2.355-.62 5.265-.279 7.62-.156 1.765.062 3.529.032 5.297 0 .649 0 1.826-.156 2.261.464-.587.649-2.54.435-3.406.558-1.145.152-2.323 0-3.254.37z" fill="#b2cfd2"/><path d="m285.956 353.07c-2.323-28.03-13.783-44.352-14.292-45.033-5.761-6.721-10.996-4.739-11.181-4.678-1.21.496-1.781 1.826-1.317 3.004.496 1.207 1.81 1.797 3.02 1.301l-.078.029c.107-.029 2.556-.743 5.917 3.159 0 0 11.12 15.92 13.319 42.588.123 1.272 1.207 2.228 2.478 2.105 1.284-.088 2.211-1.204 2.134-2.475z" fill="#a1dbe0"/><path d="m306.275 394.976c-1.038-1.362-2.092-1.674-2.634-1.826-.032-.032-.11-.062-.11-.062.156.062.308.214.386.308-1.207-1.859-2.709-19.667-3.328-27.254-3.098-36.301-17.422-60.769-18.042-61.791l-.279-.496-.496-.279c-6.196-3.902-13.053-6.968-13.364-7.091-1.161-.525-2.507.029-3.052 1.177-.509 1.177 0 2.507 1.194 3.069.045 0 6.861 3.065 12.777 6.75l-.775-.775c.156.247 14.402 24.656 17.422 59.838 2.524 29.888 3.25 30.105 6.348 31.004.049.032.156.032.156.062l-.029-.029s.029.062.107.152c.775 1.022 2.245 1.239 3.254.464 1.006-.772 1.24-2.196.465-3.221z" fill="#a1dbe0"/><path d="m308.286 336.316c-4.645.775-7.698-37.725-12.343-40.791-4.616-3.098 0-6.938 3.87-4.616 3.828 2.29 4.6 3.065 9.248.743 4.616-2.29 4.337-2.323 9.212-4.583 9.446-4.46-.386-9.261 6.552-13.102 6.922-3.841 14.247 0 15.797 3.841 1.502 3.873 4.6 20.783 0 20.04-4.645-.775 0-.775-4.645-7.71-4.616-6.938-1.518 2.29-4.616 5.388-3.052 3.065-5.375 3.841-9.216 0-3.87-3.87-9.245-3.098-9.245.775 0 3.841 4.6 13.069-1.547 9.229-6.163-3.87-5.391 3.065-4.616 9.229s6.165 20.781 1.549 21.557z" fill="#a1dbe0"/><path d="m357.536 262.413c-9.06-2.29-5.375 4.616-.775 8.486 4.645 3.841 10.036 3.841 10.808 8.457.727 4.616.727 13.069 1.502 18.49.775 5.359 5.427 6.909 5.427.743 0-6.163 1.518-21.558-3.88-26.171-5.375-4.616 2.332-10.004 3.88-6.938 1.518 3.098 4.616 6.163 5.391 12.326s-.775 10.036 3.808 9.261c4.616-.775 3.098-3.87 6.938-6.163 3.841-2.323 5.388-5.42 6.163 0 .775 5.388-3.841 9.975-2.323 13.844 1.547 3.841 6.938 9.229 6.938 5.388s-2.29-5.388-2.29-9.229 2.29-3.065 3.065-9.229c.775-6.196 2.323-11.551-5.388-11.551-7.714 0-6.938 3.065-10.779-2.323-3.873-5.391-2.323-9.229-8.457-10.004-6.171-.775-10.971 6.906-20.028 4.613z" fill="#a1dbe0"/><path d="m415.259 309.37c0-19.732-1.58-34.319-4.707-43.363-2.446-6.968-5.359-9.167-7.094-8.95l2.29 1.145c-3.652-6.348-10.656-7.279-10.964-7.308-1.272-.156-2.446.743-2.602 1.982-.156 1.301.743 2.446 2.011 2.602.032 0 5.08.714 7.526 4.989l.464.775.804.311c-.156-.065-.246-.094-.246-.094.091.029 7.899 5.112 7.899 47.914 0 1.272 1.054 2.323 2.323 2.323 1.307-.004 2.296-1.058 2.296-2.326z" fill="#a1dbe0"/><path d="m520.581 253.307c-1.596.496-15.457 6.971-16.229 70.65 0 1.301 1.006 2.323 2.29 2.352 1.272.032 2.323-.993 2.323-2.29.727-59.838 13.04-66.345 13.192-66.374l.049-.032c.107-.062.152-.094.152-.094l-.354.156c1.239-.402 1.904-1.703 1.469-2.913-.381-1.208-1.698-1.886-2.892-1.455z" fill="#a1dbe0"/><path d="m517.672 297.909c1.395-35.432 12.67-38.591 12.777-38.624l-1.349-.123 1.272.123c1.284-.217 2.092-1.395 1.904-2.663-.23-1.272-1.44-2.076-2.709-1.859-1.518.279-14.944 3.747-16.537 42.99-.032 1.268.976 2.323 2.245 2.384 1.235.033 2.319-.959 2.397-2.228z" fill="#a1dbe0"/><path d="m556.464 261.702c-2.199.435-9.602 4.707-11.846 41.348-.078 1.301.898 2.384 2.167 2.478 1.239.062 2.368-.899 2.446-2.167 2.044-33.573 8.395-37.2 8.44-37.229 0 0-.078.062-.308.094 1.268-.246 2.089-1.456 1.81-2.725-.231-1.241-1.47-2.048-2.709-1.799z" fill="#a1dbe0"/><path d="m562.939 266.253c-.431.435-9.91 10.873-9.105 24.004.078 1.301 1.21 2.261 2.478 2.167 1.239-.062 2.215-1.177 2.138-2.446-.697-11.12 7.775-20.533 7.85-20.627v.032c.898-.96.821-2.417-.107-3.283-.932-.836-2.404-.807-3.254.153z" fill="#a1dbe0"/><path d="m568.466 301.873c.665-7.866 3.607-10.841 6.659-12.913.853-.558 2.138-1.333 3.64-2.232 7.509-4.522 10.808-6.783 11.538-8.95.386-1.21-.263-2.507-1.473-2.913-1.239-.402-2.942 1.456-2.942 1.456.045-.094.078-.156.078-.156-.775 1.301-12.42 8.362-13.397 8.982-6.815 4.214-7.201 6.909-9.092 38.098-.775 13.102.234 29.486-2.323 33.359-.697 1.054-.435 2.478.649 3.192 1.054.714 2.478.402 3.176-.62.003-.005 2.991-51.912 3.487-57.303z" fill="#a1dbe0"/><path d="m577.682 334.022c0-35.682.078-35.776 4.026-40.019 1.829-1.949 4.415-3.127 7.201-4.366 3.562-1.609 7.25-3.283 9.293-6.812.62-1.116.23-2.54-.882-3.159-1.083-.649-2.524-.247-3.143.837-1.272 2.261-3.331 4.739-6.458 6.163-2.913 1.333-6.783 3.5-9.261 6.163-5.219 5.667-5.372 46.584-3.438 46.954 1.932.403 2.662-4.492 2.662-5.761z" fill="#a1dbe0"/><path d="m600.91 289.485c-1.628 2.011-3.361 3.254-5.219 4.554-4.46 3.098-9.031 6.319-10.267 18.957-.341 3.5-.263 7.156-.156 10.406.123 3.935.234 7.652-.542 9.881-.389 1.21.279 2.507 1.469 2.913 1.239.431 2.524-.247 2.942-1.456.976-2.975.853-6.909.743-11.46-.075-3.25-.201-6.627.11-9.819 1.083-10.533 4.259-12.79 8.333-15.642 1.966-1.362 4.181-2.913 6.225-5.482.775-.993.587-2.446-.389-3.254-1.001-.775-2.473-.623-3.249.402z" fill="#a1dbe0"/><path d="m618.488 296.609c-.727.431-16.216 6.196-15.408 25.087 0 0-1.161 6.971.123 6.909 1.272-.032 2.277-1.116 2.199-2.417-.697-16.011 15.255-25.49 15.408-25.584 1.083-.649 1.473-2.044.853-3.159-.651-1.086-2.046-1.488-3.175-.836z" fill="#a1dbe0"/><path d="m626.154 302.091c-10.61 1.982-17.5 15.301-18.431 35.649-.075 1.301.928 2.384 2.216 2.446 1.272.032 2.975-11.366 2.975-11.366.821-17.808 5.852-20.66 14.094-22.174 1.239-.217 2.089-1.424 1.859-2.696-.235-1.24-1.429-2.077-2.713-1.859z" fill="#a1dbe0"/><path d="m538.701 256.655c-.509.341-12.544 8.765-13.319 43.421-.049 1.272.96 2.355 2.245 2.355 1.268.062 2.323-.96 2.352-2.261.697-31.809 11.198-39.613 11.305-39.707l-.032.029c1.083-.714 1.349-2.138.652-3.221-.692-1.051-2.116-1.33-3.203-.616z" fill="#a1dbe0"/><path d="m305.159 350.562c-6.196-41.842-17.857-53.798-18.353-54.294l-.078-.062-.123-.094c-8.748-7-14.247-4.366-14.866-4.058-1.083.62-1.502 2.011-.882 3.159.574 1.083 2.011 1.518 3.098.899l-.045.032c.045 0 3.529-1.489 9.835 3.562l-.185-.156c.107.094 11.103 11.707 17.036 51.693.185 1.272 1.395 2.138 2.634 1.953 1.264-.188 2.117-1.365 1.929-2.634z" fill="#a1dbe0"/><path d="m308.568 302.801c.107.247 12.08 26.232 12.806 44.693 0 0 2.709 49.338 5.884 50.918 1.132.558 2.524.123 3.098-1.022.587-1.145.123-2.507-1.038-3.098.341.188.496.402.496.402-2.011-3.098-3.636-28.279-3.513-44.291.075-16.015-13.209-48.968-13.705-49.867-.62-1.116-2.06-1.518-3.143-.866-1.119.624-1.508 2.048-.885 3.131z" fill="#a1dbe0"/><path d="m338.407 279.79c.123.065 11.428 7.217 11.428 19.576l-.152 14.681c-.542 34.04-.542 53.179 1.116 57.052.509 1.177 1.859 1.703 3.02 1.207 1.21-.493 1.752-1.859 1.239-3.004-1.58-3.685-2.4-39.367-2.121-56.062l-.389-16.167c0-14.99-11.149-20.906-11.739-21.218-1.083-.681-2.507-.341-3.176.743-.65 1.086-.309 2.51.774 3.192z" fill="#a1dbe0"/><path d="m412.719 254.485c3.902 1.953 9.011 31.653 5.634 56.896-3.065 23.044-1.547 52.501-1.547 52.747.091 1.301 1.177 2.261 2.446 2.199 1.272-.062-1.022-33.388 1.982-56.001 2.786-20.815 1.888-55.812-6.475-59.961-1.116-.587-2.507-.123-3.098 1.022-.551 1.145-.116 2.54 1.058 3.098z" fill="#a1dbe0"/><path d="m238.214 273.192c-6.815-.743-14.279-3.127-21.295-.743 7.788-.279 17.701 1.58 24.16 4.645-1.502-1.239-2.819-2.696-4.415-3.902" fill="#fff"/><path d="m302.139 263.963c-4.801-2.076-13.319-4.12-18.428-3.685 5.064 1.671 11.305 4.428 17.656 3.685" fill="#fff"/><path d="m308.055 242.931c-3.873-3.189-11.227-7.71-16.109-9.352 4.305 3.036 9.339 7.217 15.379 9.073" fill="#fff"/><path d="m634.746 257.365c-4.986.091-13.549 1.395-18.272 3.344 5.19-.464 11.739-.558 17.578-3.065" fill="#fff"/><path d="m599.363 256.593c-4.986.123-13.549 1.392-18.305 3.344 5.219-.464 11.768-.558 17.578-3.065" fill="#fff"/><path d="m654.695 263.188c-6.815 1.92-31.87 5.884-32.058 5.978-.234.094 20.131-4.707 23.693-5.761 3.565-1.083 12.887-1.485 8.365-.217z" fill="#fff"/><path d="m468.006 186.81c17.996 1.765 34.102-2.786 50.642 3.468-8.674-.156-17.004-1.333-25.785-1.333-4.538 0-9.446.402-13.906-.091-3.717-.403-7.049-1.982-10.951-2.044" fill="#fff"/><path d="m559.221 194.864c4.366.123 9.089 3.87 13.397 5.047 3.361.928 6.147 1.518 9.245 2.913 5.08 2.232 9.212 5.732 13.549 8.83-2.092-.094-2.634-1.362-4.288-2.044-1.132-.435-3.685-1.148-5.034-1.891-3.841-2.105-5.112-3.377-9.988-4.337-3.841-.714-6.504-1.456-9.491-3.902-3.283-2.663-5.917-2.602-8.239-3.747-2.326-1.151.849-.869.849-.869z" fill="#fff"/><path d="m677.567 272.822c-7.308 0-14.046-2.105-21.37-1.054-4.058.62-9.835 3.098-12.806 3.344 5.884 0 11.181-.558 16.881-1.116 4.103-.431 11.026.279 14.435-1.177" fill="#fff"/><path d="m645.25 234.137c-7.866.279-15.998-1.982-24.082-2.323-8.826-.341-19.018 1.083-26.297 2.91 8.408-.123 16.306-1.765 24.98-1.765 8.129 0 23.105 2.913 23.647 1.177" fill="#fff"/><path d="m621.197 242.963c.075-1.612-32.165-.341-46.104 4.275-6.273 2.076-17.932 6.692-16.615 8.178 1.317 1.518 11.46-5.761 15.178-6.877 5.034-1.456 10.114-1.268 15.178-2.167 5.621-1.022 10.889-1.239 16.725-1.239 5.576.062 9.569-2.507 15.067-2.167" fill="#fff"/><path d="m419.534 190.835c-14.312 0-30.2-2.014-44.044 1.765 6.319-.156 14.866.464 22.084.525 7.094.094 13.442-1.826 20.193-1.735" fill="#fff"/><path d="m371.595 207.408c-9.988 2.011-22.269-.123-31.64 3.623-3.594 1.424-8.982 4.833-11.768 6.348 7.587.123 16.77-4.46 23.894-5.203 3.672-.341 7.853.714 11.305-.25 2.663-.714 5.839-3.283 8.787-3.779z" fill="#fff"/><path d="m583.07 227.292c2.709-2.696-22.269.558-31.484 3.562-3.516 1.116-8.749 3.594-11.46 4.739 7.555-.431 16.537-3.931 23.615-4.862 3.639-.464 7.866-.094 11.272-.899 2.634-.652 5.683-2.446 8.596-2.942" fill="#fff"/><path d="m351 225.959c10.02 5.112 21.519 3.065 26.164 14.587-2.076-1.486-3.409-4.707-5.878-5.978-2.524-1.333-4.801-.62-7.636-1.145-5.141-.993-9.942-5.047-13.426-6.815-3.451-1.703.776-.649.776-.649z" fill="#fff"/><g fill="#a1dbe0"><path d="m369.846 309.246c0 .185-.96 17.779-.853 35.558.201 37.385 4.794 39.088 7.023 39.86 1.177.464 2.507-.152 2.942-1.395.464-1.177-5.051-12.884-5.051-12.884-4.22-2.786-1.21-28.957.558-60.863.062-1.301-.899-2.384-2.17-2.446-1.288-.091-2.371.899-2.449 2.17z"/><path d="m362.334 350.751c-1.502-20.442 1.362-51.725 1.362-52.098-.853-15.859-5.544-25.892-13.134-28.435-1.194-.402-2.507.279-2.897 1.456-.431 1.239.234 2.54 1.424 2.942 5.621 1.859 9.261 10.653 9.988 24.095 0 .217-.775 37.91.775 58.57 1.132 15.145 1.239 12.232 5.388 27.533l2.43 12.265c.389 1.21 1.706 1.891 2.913 1.489 1.194-.435-2.634-14.866-3.02-16.076.006.002-3.711-11.487-5.229-31.741z"/><path d="m313.985 297.475c.542.341 12.806 8.207 13.549 28.156.727 21.247 4.444 46.925 5.42 52.653.185 1.239 1.395 2.105 2.634 1.888 1.272-.214 2.121-1.395 1.888-2.663-.931-5.67-4.6-31.036-5.342-52.033-.804-22.58-15.129-31.562-15.719-31.932-1.083-.649-2.507-.308-3.176.775-.691 1.08-.337 2.507.746 3.156z"/><path d="m323.389 293.881c3.299 4.12 11.846 16.417 11.846 23.942 0 9.54 1.473 44.91 4.723 53.925.464 1.207 1.781 1.826 2.991 1.362 1.194-.402-1.551-5.978-1.551-5.978-2.913-7.96-3.098-37.012-3.098-46.986 0-10.685-10.763-28.497-11.272-29.145-.804-.993-2.277-1.145-3.254-.373-1.008.807-1.164 2.263-.385 3.253z"/><path d="m287.506 359.45c.029 1.735.853 42.247 6.426 52.621.62 1.145 2.014 1.551 3.13.928 1.132-.587 1.551-1.982.928-3.098-4.21-7.805-5.683-39.12-5.884-50.515-.029-1.301-1.083-2.323-2.352-2.293-1.288.035-2.297 1.089-2.248 2.357z"/><path d="m311.354 341.613c-.045 1.054 1.395 40.109 1.625 42.899.649 8.362 1.427 17.841 7.234 26.232.743 1.083 2.167 1.33 3.221.62 1.083-.743 1.317-2.167.571-3.254-5.064-7.341-7.23-25.305-7.665-27.906-1.469-9.663-.386-38.189-.386-38.439.049-1.268-.928-2.323-2.199-2.352-1.285-.064-2.371.961-2.401 2.2z"/><path d="m414.889 244.046c2.384 2.384 8.765 9.757 9.323 14.775l.123 1.022c3.594 32.182 3.192 43.116 2.228 46.616-2.446 8.982-2.323 37.261-.775 44.197.279 1.272 1.518 2.044 2.757 1.765s2.014-1.518 1.735-2.757c-1.424-6.442-1.518-33.7.775-41.997 1.551-5.732.866-21.526-2.167-48.319l-.062-1.054c-.866-7.496-9.692-16.508-10.685-17.533-.898-.899-2.384-.899-3.254 0-.929.934-.929 2.358.002 3.285z"/><path d="m438.368 341.704c-2.417-7.308-6.134-23.877-2.323-41.566 3.685-16.848-1.891-42.03-1.551-43.888.775-3.841-5.359-13.069-5.359-13.069s-5.634-4.801 3.873-5.391c9.446-.62 10.747 1.518 16.135 3.065 5.391 1.547 10.036 0 14.636-1.551 4.616-1.518 8.826.37 11.538 3.098 6.938 6.909 1.551 6.909-2.323 7.681-3.828.775-6.922 0-14.591-.775-7.71-.775-11.551-3.841-14.649 0-3.098 3.87-3.841 7.71-2.323 12.359 1.551 4.583 3.5 22.301 1.953 26.171-1.551 3.808-5.018 19.232-5.018 27.689 0 8.486 3.468 25.428 3.468 28.464.001 3.104-2.694.006-3.466-2.287z"/><path d="m612.186 290.971c-5.777 1.456-15.1 13.069-16.725 23.044-.853 4.989-1.239 8.116-1.674 11.431-.341 2.91-.727 5.917-1.424 10.529-1.859 11.986-6.582 25.953-11.739 28.247-1.161.525-1.706 1.888-1.194 3.065.542 1.145 1.888 1.674 3.052 1.177 9.958-4.428 16.336-51.106 17.16-55.997 1.473-8.797 10.254-16.167 13.66-17.004 1.239-.308 1.982-1.58 1.674-2.819-.315-1.238-1.551-1.981-2.79-1.673z"/><path d="m445.426 255.413c.029.217 5.884 18.83 2.228 33.388-1.456 5.884-2.076 17.344-2.352 25.863-.032 1.301.96 2.352 2.261 2.384 1.272.062 2.323-.928 2.355-2.232.37-11.768 1.145-20.595 2.228-24.903 3.964-15.859-2.076-35.091-2.355-35.899-.373-1.239-1.674-1.888-2.913-1.486-1.17.377-1.854 1.678-1.452 2.885z"/><path d="m455.401 254.702v-.029c.062.062 2.138 6.627 1.456 14.464-.402 4.337-.402 9.352-.402 14.247 0 4.801 0 9.29-.341 12.667-.247 1.768-.341 5.268-.402 7.866-.029 1.272.993 2.355 2.261 2.384 1.272 0 2.323-1.022 2.352-2.261.094-3.562.185-6.225.341-7.493.402-3.594.402-8.239.402-13.163 0-4.772 0-9.696.37-13.815.837-8.859-1.547-16.044-1.641-16.352-.402-1.21-1.703-1.859-2.913-1.456-1.204.401-1.856 1.702-1.483 2.941z"/><path d="m462.278 255.104c.029.217 3.747 23.602 1.547 35.37-.247 1.272.574 2.478 1.859 2.696 1.239.247 2.43-.587 2.663-1.826 2.368-12.609-1.349-35.993-1.502-37.012-.234-1.239-1.395-2.076-2.679-1.891-1.24.185-2.106 1.392-1.888 2.663z"/><path d="m553.833 343.903c-.775 15.58-3.669 30.076-6.196 31.066-1.194.435-1.781 1.765-1.349 2.942.464 1.21 1.781 1.797 2.975 1.362 6.861-2.54 8.719-25.428 9.183-35.153.078-1.272-.898-2.355-2.167-2.417-1.284-.061-2.368.899-2.446 2.2z"/><path d="m551.556 322.254c-.279.279-6.861 6.069-7.714 13.815-.23 2.138-.152 4.924-.029 8.178.23 7.094.571 16.754-3.143 20.442-.931.928-.931 2.384 0 3.283.898.899 2.368.899 3.254 0 5.112-5.112 4.801-15.518 4.493-23.881-.078-2.942-.185-5.729.045-7.526.652-5.917 6.072-10.779 6.147-10.841.928-.837 1.054-2.261.201-3.25-.853-.963-2.294-1.057-3.254-.22z"/><path d="m553.833 251.637c-2.277-3.098-9.212-2.323-13.085-2.323-3.824 0-6.922-2.293-12.313-3.841-5.372-1.518-16.057-3.747-20.364 2.757-4.259 6.504-5.498 9.569-7.775 22.671-2.323 13.069-2.212 36.95-2.988 51.57-.727 14.616-4.6 36.95-7.665 40.791 0 0-1.551 3.873 1.518 3.873 3.098 0 7.694-23.881 7.694-23.881s1.083-13.102 2.446-36.178c3.02-53.055 11.924-54.233 13.705-54.2 1.781 0 .341 3.004 1.781 4.645 3.484 3.873 6.582 2.446 10.763 2.108.882 5.482-5.034 12.573-1.317 14.99 3.747 2.417 9.06-3.562 14.091-7.25-1.083 1.518-2.089 2.975-2.679 4.275-2.277 5.388-3.824 46.954-2.277 50.827 1.55 3.841 3.098-4.645 3.098-4.645-.821-52.345 12.31-57.704 12.31-57.704s5.38-5.391 3.057-8.485z"/><path d="m635.599 305.931c-11.801 1.145-15.642 13.536-17.685 20.193-.308.993-.587 1.829-.821 2.446-.649 1.829-1.038 4.522-1.502 7.96-.976 6.938-2.4 17.377-7.354 19.638-1.161.496-1.703 1.855-1.161 3.036.496 1.145 1.891 1.671 3.052 1.145 7.279-3.254 11.227-36.175 11.739-37.508.266-.743.542-1.641.882-2.696 1.859-6.04 4.567-8.765 13.319-9.634 1.239-.123 2.167-1.268 2.06-2.507-.128-1.268-1.244-2.196-2.529-2.073z"/><path d="m528.357 322.812c-.542 5.33-1.038 11.645-3.361 25.058-2.371 13.41-4.259 20.381-7.328 28.091-3.098 7.681 3.455 4.243 10.61-24.812l.898-5.294 1.161-6.196c1.006-5.326 2.044-10.87 2.634-16.414.107-1.239-.821-2.384-2.092-2.507-1.283-.125-2.399.802-2.522 2.074z"/><path d="m496.733 250.025c-1.904 4.895-3.377 10.468-4.645 17.562l-1.285 7.123c-2.277 12.67-6.922 55.164-6.844 56.309.152 2.384.341 5.141-.234 6.877-.279.928-.743 1.859-1.239 2.851-.464.928-.976 1.859-1.317 2.851-.464 1.177.107 2.507 1.317 2.975 1.194.435 5.265-6.007 5.683-7.311.775-2.569.279-10.591.279-11.428-.049-4.678.263-9.384.853-13.939 1.469-12.761 3.591-32.551 5.839-45.127 0 0 4.103-12.45 5.933-17.066.464-1.177-.127-2.507-1.317-2.975-1.21-.467-2.527.12-3.023 1.298z"/><path d="m468.889 256.032c-.078 3.931.587 7.899 1.207 11.707.574 3.623 1.161 7.402 1.116 10.964 0 3.808-.62 7.37-1.933 11.551-2.478 7.837-4.136 15.859-5.576 26.7-.185 1.272.743 2.417 1.982 2.602 1.272.152 2.43-.714 2.585-1.982 1.395-10.594 3.02-18.337 5.42-25.924 1.473-4.645 2.138-8.612 2.167-12.917.045-3.964-.62-7.899-1.239-11.707-.574-3.811-1.161-7.402-1.116-10.935 0-1.272-1.006-2.323-2.293-2.323-1.266-.026-2.32.996-2.32 2.264z"/><path d="m389.802 422.046c4.026 2.261 7.772-1.641 12.45-3.098 3.996-1.239 7.989-1.888 11.957-3.406 3.409-1.301 6.196-2.384 9.91-2.696 5.482-.464 13.008-1.177 18.181-3.348.062-.214.062-.464 0-.681-3.036-.032-6.04-.123-8.95-.837-1.21-.279-2.88-1.456-4.181-1.301-1.333.123-.866.649-1.859.931-3.13.899-6.598-.279-9.602.496-.464.094-1.486 1.022-2.417 1.239-1.859.435-4.21-.062-6.102.029 1.083 4.46-7.743 2.88-10.315 3.159-.775.094-2.011-.308-2.725.032-.743.341.091 1.456-.373 1.735-1.547.837-3.438.62-5.203.804-1.641.188-3.192.341-4.554.804-.217.094.247.837-.247 1.022-.714.247-1.333.062-2.076.217-1.735.341-4.833.279-6.286-.62-.156-.804-.431-1.518-1.486-1.116-1.551.587-.032 1.456-.587 2.602-.866 1.982-3.283 1.116-4.36 2.786-.976 1.489.464 3.159 1.418 4.12.62.681.279.837 1.21 1.456.743.526 2.663.464 2.913 0-.006.008 9.193-6.587 13.284-4.329z"/><path d="m492.584 390.302c2.991.558 4.957 3.004 8.641 2.569-.431-.62.032-1.395 3.176-1.703 3.098-.308 2.819 0 6.77 1.145 3.299.96 4.103 1.706 7.633 1.456 0-.308 2.355.094 2.323-.247 3.717-.431 5.839 1.272 8.982 2.663 4.567 3.931 7.62 4.895 10.065 5.047 2.556.126 5.498-1.177 8.129.032 2.741 1.272 8.826 6.844 7.698 7.743-1.116.899-3.406-2.851-3.406-.804 0 2.014-5.683.62-8.362-.032-3.714-.928-6.38-2.228-10.328-2.569-2.634-.217-5.498-.247-8.178-.62-1.038-.156-2.864-.217-3.714-.837-.574-.37-1.161-1.547-1.424-1.732-1.904-1.395-3.143-1.92-5.573-2.293-4.103-.681-11.895-3.159-11.817-3.406-2.741-.714-5.42-.62-8.239-.62-2.446-.029-7.633.804-9.91-.279-3.685-1.797-1.006-6.072 2.585-4.645-.007-.002 2.471-1.335 4.949-.868z"/><path d="m400.733 399.904c2.228-1.706 1.765-5.051 5.576-4.337 1.765.341 2.602 2.105 5.109 1.424 1.982-.558 3.627-3.13 6.102-2.569 1.888.431 2.261 2.696 4.801 1.982-.062-.714.25-1.674.032-2.446 2.228-.435 4.772.062 6.877.743-.402-.681-.094-.993-1.083-1.671 3.254-.185 5.482.525 8.333.279 4.026-.431 7 1.982 9.881.496.928-.464.464-1.641 2.913-1.703 1.765 0 2.417.649 3.87 1.333 2.352 1.116 6.069 3.283 8.765 3.344-.091 6.536-10.221 2.044-13.04 1.395-7.188-1.674-15.703-.496-22.953.496-2.913.435-5.761.714-8.765.96-3.438.279-5.42 1.797-8.424 2.696-1.671.496-8.457 2.352-7.989-.96v-1.463h-.005z"/><path d="m362.924 409.44c-5.158.899-13.131-2.569-16.462.649-3.283 3.221-12.031.526-12.729 2.634-.697 2.105 4.181 2.757 6.348 3.438 1.551.464-.201 2.602 2.634 2.417 2.478-.156 1.781-3.192 3.283-3.594 3.562-.928 12.203-.152 13.705-1.022 1.518-.837-2.507-2.507.279-2.848 2.741-.37 5.651.094 6.815-1.674z"/><path d="m393.827 402.69c-2.757-1.456-3.254-4.768-6.909-4.862-.217 1.301-1.765 1.953-.681 3.159-1.706.156-5.514-1.456-5.823 1.083-1.891.526-7.714-.308-8.022 1.765-1.262.062-2.624 0-3.941.094-.234 1.703 1.362 2.105 2.602 2.819-.23.279-.431.587-.665.866 1.512 1.518 3.059-.435 4.918-.217s3.254 3.5 6.04 2.323c.279-1.239-.341-2.384-1.145-3.283 1.547-.993 4.678-.899 6.413-.217.185-.681.804-1.518.928-2.352 1.022-.032 2.044-.032 3.065.029.435.993 1.054.866 2.044.837z"/><path d="m463.702 401.295c2.014 1.268-1.826 3.25 3.409 3.87 2.138-.714 5.342-.866 5.42-1.765 2.679.185 6.04 1.703 9.988.246 3.487-.032 10.841 1.333 14.172.185 2.011.156 3.948.402 5.962.558 2.709-.993.976-1.456.078-2.044.665-.126 1.469-.279 2.167-.402-.11-1.116-5.141-.185-7.513-.587-2.43-.435.049-2.54-5.651-2.261-2.167.681-2.786 1.424-2.819 2.073-3.688.341-8.207-.185-9.757-.837-1.285.402-3.299.743-4.645 1.21-1.551-.094-3.065-.247-4.415-.464.697-.62-.386-.649-1.904-.775z"/><path d="m399.588 425.516c-3.808-.062-7.899 2.975-11.489 4.026-1.949.558-6.938 1.826-7.247 4.026 2.228-.435 4.46-.247 6.627-.526 3.004-.431 4.986-1.612 7.772-1.765 4.058-.247 6.659-.775 10.127-3.098 1.456-.96 6.475-2.725 6.565-3.5-3.221-.311-6.007 1.888-9.196 1.703z"/><path d="m554.605 423.998c-2.044-.156-4.366.094-6.303-.649-.928-.341-1.55-1.301-2.478-1.641.341-.587.804-1.612 1.505-2.138-.775 0-1.628-.681-2.245-.714 2.524-5.297-4.567-4.149-8.054-4.833-2.121-.402-4.136-1.116-5.761-2.602-.049-.214 0-.431.107-.62 3.299-.681 6.008-.062 8.875.558 1.58.373 6.225.094 7.464.928.853.558 4.337 7.062 4.304 8.022.882.341 1.81.587 2.741.775z"/></g><path d="m460.666 424.462c20.348.402 20.147-.928 40.356 1.301 6.475.71 12.933 1.859 19.359 2.88-3.205 3.344-8.596 1.145-8.625 2.942-.045 1.765 5.034 1.797 8.362 2.29 4.026.62 4.214-.029 8.083 1.178 2.757.837.156 2.384 2.942 3.159 2.092.62 7.435 3.653 9.446 4.428 1.132.464 5.622 2.942 5.622 2.942l-48.673 6.815-64.934 2.384s-28.652-3.254-31.004-5.884c2.014-1.949 25.584-.993 21.029-3.159-4.616-2.199-14.373-5.42-14.558-7.526-.156-2.076 5.667-1.674 7.033-2.417 3.87-2.105 8.239-2.602 12.109-4.678.993-.558 6.659-3.036 6.938-3.747.652-1.612-5.018-3.532-6.069-4.275 3.377-1.145 4.399.185 11.49-.59 7.093-.735 21.094 1.957 21.094 1.957z" fill="#99d0d5"/><path d="m403.925 444.658-13.289-8.641-5.388-5.019-11.707-1.145-7.133-4.028-11.383-7.711-13.828 1.92-7.311 4.243 11.538 16.913 29.229 4.428 19.265-.373z" fill="#0f6e29"/><path d="m355.801 420.995 14.045 10.003-10.377-2.507-4.985-2.108-5.035-.961h-1.703l-5.962-2.507 3.053-1.547 6.734 1.145 2.325-.558z" fill="#fff"/><path d="m381.777 432.734 2.695.34 1.768 2.602 5.573 3.5 8.084 4.337-5.421-.714-5.576.218-1.359-2.106-2.293-2.449-2.109-3.127-2.475-1.579-4.648-1.207z" fill="#fff"/><path d="m504.275 424.154c3.948-.25 5.342 1.239 9.91 2.228 2.757.587 8.207-.681 10.919 1.333-.928.775-3.052 1.362-3.254 2.569 2.942 1.826 5.806 1.116 8.875 3.004 3.098 1.92.62 1.083 0 2.232 1.547.62 5.45 1.33 6.692 2.54 1.083 1.083.464 2.323 1.207 3.409 2.121 3.25 8.44 2.569 10.763 2.138.96-.185 2.819-.464 3.487-.96.386-.311.185-1.145.542-1.489.96-1.022 3.098-.62 4.989-.62 1.859 0 6.348 1.022 5.002-1.518-1.006-1.891-4.801-3.409-6.552-3.902-2.634-.714-5.372-1.178-7.928-1.674-3.098-.558-6.861-.804-10.036-2.014-2.897-1.083-5.343-3.004-7.85-4.554-2.634-1.641-6.118-3.652-8.749-4.616-4.46-1.703-8.641-2.602-12.67-2.696-5.605-.156-24.857 1.333-24.004 2.478s9.105 1.177 11.739 2.108c2.63.997 6.918.004 6.918.004z" fill="#b2cfd2"/><path d="m519.576 415.234c-1.518-6.381-16.232-1.58-20.335-3.159-.029-.558-.185-1.268-.107-1.794-2.524 2.138-4.382 1.177-8.022 1.888-.697.123-.697 1.333-1.625 1.551-.697.123-2.044-.402-2.663-.032-1.083.649-1.469-.217-1.826 1.489 5.576.681 11.071-.156 16.803-.341 3.25-.123 8.362-.525 11.35.279 2.942.775 4.755 2.384 7.587.899z" fill="#a1dbe0"/><path d="m439.915 404.828c-.37 1.551 4.428-.279 6.565 0 2.54.341 4.275 1.58 7.279 1.58.496 1.859 2.261 2.044 4.087 2.384-1.829.341-3.562-.123-4.707 1.022.341.279.866.62 1.272.899-2.602.558-5.359.062-7.25 2.199 2.819 2.54 12.112.496 15.457-.464-.804-.311-2.261-.928-3.377-.993.587-.123 1.178-.402 1.794-.558-.091-.525-.152-1.207-.279-1.765.681-.775.62-1.333.681-2.29-2.725-.899-5.047-.96-7.62-2.105-2.507-1.145-4.214-1.768-7.402-1.456.004-.001-6.098.029-6.5 1.547z" fill="#a1dbe0"/><path d="m736.863 298.684c0-6.89-.828-13.709-2.426-20.429-1.223-1.796-2.001-2.77-2.001-2.77l-63.88 13.102-16.183 56.958-41.55 17.718-33.868 31.562-15.408 5.388-9.988 44.664h.002c37.504-7.711 71.906-19.73 101.114-35.602 54.29-29.503 84.188-68.779 84.188-110.591z" fill="#0e3c24"/><path d="m687.866 212.176 35.896 41.164c-8.252-14.805-20.439-28.62-35.896-41.164zm-503.966 29.921c23.615-32.366 62.099-52.501 69.099-54.233 7.016-1.768 15.765 6.131 24.516 5.232 8.703-.866 11.334-13.102 19.236-13.102 7.866 0 13.085 2.634 19.203 2.634 6.163 0 29.733-1.765 39.383-3.5 7.049-1.301 18.762 2.569 24.555 4.739 5.511-.308 10.529-.496 14.866-.464 29.33.062 59.497-3.254 88.922-1.797 19.901.96 42.51 1.489 62.303 5.359 1.735-.866 12.313-6.04 21.866-5.232 10.5.899 15.765 5.232 22.765 5.232 6.971 0 13.085-4.337 21.837-4.337s25.399 3.468 30.631 6.968c5.219 3.5 13.968 6.134 20.984 8.768 3.98 1.486 9.988 4.399 14.402 6.659-52.238-37.631-135.12-61.914-228.485-61.914-122.878 0-227.642 42.091-268.17 101.219 1.395-1.145 3.361-2.602 5.609-4.149-2.283 1.204-3.522 1.918-3.522 1.918zm-3.484 3.5c-1.671 1.765-2.942 4.305-3.948 7.247 1.628-2.88 3.409-5.699 5.342-8.518-.59.463-1.054.898-1.394 1.271zm503.782-37.634s-2.446-1.268-5.729-2.942c3.254 2.323 6.38 4.707 9.4 7.156zm41.968 48.102-2.4-2.725c.464.775.853 1.609 1.272 2.446z" fill="url(#a)"/><path d="m518.447 157.603-17.345 17.066 22.765-16.229c-1.78-.312-3.594-.561-5.42-.837zm-15.674-2.17-14.448 19.236 20.332-18.49c-1.933-.25-3.918-.496-5.884-.746zm-17.082-1.671-10.143 20.906 16.491-20.348c-2.121-.217-4.21-.405-6.348-.558zm46.925 6.287-18.768 14.616 23.573-13.66c-1.584-.304-3.18-.645-4.805-.956zm12.621 2.634-18.613 11.986 22.797-10.993c-1.397-.345-2.789-.653-4.184-.993zm-96.34-10.316 5.732 22.301 1.083-22.239c-1.888-.032-3.779-.094-5.667-.094-.405 0-.775.032-1.148.032zm116.056 22.301 12.343-3.127c-.928-.311-1.888-.62-2.864-.899zm1.035-6.627-13.815 6.627 17.066-5.667c-1.081-.343-2.164-.651-3.251-.96zm-9.676-2.666-16.91 9.29 20.549-8.301c-1.193-.337-2.403-.678-3.639-.989zm-93.541 9.293 11.506-21.678c-2.245-.127-4.489-.188-6.737-.279zm-137.449-3.967 14.373 3.964-11.46-4.895c-.976.315-1.937.623-2.913.931zm104.992-17.899 11.554 21.866-4.801-22.145c-2.293.062-4.493.185-6.753.279zm-96.707 15.363 18.863 6.504-15.534-7.432c-1.081.308-2.243.616-3.329.928zm-15.561 4.956 8.872 1.547-6.348-2.417c-.853.28-1.674.559-2.524.87zm25.055-7.59 22.145 9.134-18.32-10.065c-1.269.311-2.586.59-3.825.931zm52.429-9.881 20.783 19.018-14.805-19.729c-2.014.218-3.966.465-5.978.711zm16.819-1.765 16.725 20.783-10.254-21.218c-2.166.127-4.333.28-6.471.435zm-32.243 3.932 23.478 16.848-18.026-17.685c-1.861.282-3.655.561-5.452.837zm-13.899 2.449 24.552 14.402-19.628-15.301c-1.625.279-3.299.588-4.924.899zm-12.311 2.602 24.137 11.801-19.751-12.729c-1.476.308-2.949.619-4.386.928z" fill="#0e3c24"/><path d="m391.169 450.903-19.779-14.517-37.709-18.46-43.905 3.065-7.665-30.787-31.591-38.497s2.99-23.881 5.42-46.954c1.519-14.62-13.085-13.102-13.085-13.102l-33.868-4.583s0 4.584-7.71-15.424c-4.249-11.045-16.711-14.109-27.027-14.642-6.77 13.267-10.403 27.244-10.403 41.683 0 74.928 97.507 137.477 227.322 152.218z" fill="#0e3c24"/><path d="m711.64 288.587s-11.538 2.323-16.183 4.616c-4.6 2.323-6.893 20.812-6.893 20.812s3.065-13.131 9.988-14.649c6.938-1.518 12.313-6.167 13.088-10.779z" fill="#fff"/><path d="m677.026 292.427s0 6.938-4.645 13.102c-4.6 6.163-5.375 26.946-5.375 26.946l-2.323 13.844s12.343-25.399 14.636-31.562c2.323-6.163-2.293-22.33-2.293-22.33z" fill="#fff"/><path d="m707.037 315.533s-12.31 0-18.473 11.554c-6.196 11.551-13.085 18.46-13.085 18.46s13.085-11.522 18.473-19.236c5.375-7.713 13.085-10.778 13.085-10.778z" fill="#fff"/><path d="m631.574 363.262-16.138 5.391-16.183 16.942s13.861-11.551 20.008-13.102c6.166-1.55 12.313-9.231 12.313-9.231z" fill="#fff"/><path d="m647.757 357.874 6.938-3.098-10.036 13.098z" fill="#fff"/><path d="m680.091 349.417s13.085-14.866 18.46-18.707c5.388-3.841 16.183-9.786 16.183-9.786s-10.02 11.551-16.183 15.395c-6.147 3.867-18.46 13.098-18.46 13.098z" fill="#fff"/><path d="m629.838 396.215s24.39-9.54 28.448-16.073c4.026-6.565 9.958-14.652 9.958-14.652l-4.723 17.533-6.504 10.812-14.292 1.486z" fill="#fff"/><path d="m592.318 391.755s-16.138 13.069-23.848 13.069l-6.922 19.236 14.636-15.395c-.004.003 13.081-5.385 16.134-16.91z" fill="#fff"/><path d="m251.036 308.471s.341-13.877-4.538-3.438c-3.098 6.659-6.196 4.214-6.968 5.638-.804 1.456 2.757 40.142 2.757 40.142l14.587 15.33-9.323-14.467z" fill="#fff"/><path d="m205.069 289.33-16.414-5.482-6.458-20.443 9.942 15.733z" fill="#fff"/><path d="m199.726 348.642 25.399-5.388 26.946 27.689 22.35 34.657-31.566-29.237z" fill="#fff"/><path d="m217.427 327.087-24.62 3.066-14.636-19.236 21.555 8.456 24.627 2.323 6.163 6.131z" fill="#fff"/><path d="m309.064 424.06 22.298-1.547 24.624 13.101-26.947-8.456z" fill="#fff"/><path d="m211.855 293.199 26.171 2.323 3.176 3.004s-3.766 1.949-9.339 3.13l-16.91-3.065 12.31 8.486-57.733-7.71 22.301-3.841z" fill="#fff"/><path d="m449.98 143.818c-157.382 0-285.422 69.473-285.422 154.866 0 85.358 128.04 154.802 285.422 154.802 157.403 0 285.461-69.443 285.461-154.802 0-85.393-128.057-154.866-285.461-154.866z" fill="none" stroke="#ffc20e" stroke-miterlimit="10" stroke-width="4"/></svg>